<?xml version="1.0" encoding="utf-8"?>
<!-- Generator: Adobe Illustrator 27.9.0, SVG Export Plug-In . SVG Version: 6.00 Build 0)  -->
<svg version="1.1" id="Layer_1" xmlns="http://www.w3.org/2000/svg" xmlns:xlink="http://www.w3.org/1999/xlink" x="0px" y="0px"
	 width="405.1px" height="120.7px" viewBox="0 0 405.1 120.7" style="enable-background:new 0 0 405.1 120.7;" xml:space="preserve"
	>
<style type="text/css">
	.st0{fill:#349BD6;}
</style>
<g id="Cloud">
	<path class="st0" d="M276.3,102c0-12.2,5.5-19.1,14.7-19.1c6.1,0,10.2,2.9,12.5,8l-3.6,2.1c-1.5-3.8-4.5-6.2-9-6.2
		c-6.3,0-10,5-10,12.4v5.4c0,7.5,3.7,12,10,12c4.7,0,7.9-2.6,9.3-6.6l3.5,2.2c-2.3,5.1-6.8,8.3-12.8,8.3
		C281.8,120.7,276.3,114.2,276.3,102L276.3,102z"/>
	<path class="st0" d="M314.6,120.1c-2.9,0-4.5-1.8-4.5-4.3V81.4h4.2v35.1h4v3.7C318.3,120.1,314.6,120.1,314.6,120.1z"/>
	<path class="st0" d="M322.4,106.6c0-8.6,5-14.1,12.2-14.1s12.2,5.5,12.2,14.1s-5,14.1-12.2,14.1S322.4,115.2,322.4,106.6z
		 M342.3,108.5v-3.9c0-5.7-3.2-8.5-7.7-8.5s-7.7,2.8-7.7,8.5v3.9c0,5.7,3.2,8.5,7.7,8.5S342.3,114.2,342.3,108.5z"/>
	<path class="st0" d="M370.3,115.7h-0.2c-1,2.6-3.1,5-7.6,5c-5.5,0-9.1-3.8-9.1-10.3V93.1h4.2v16.6c0,4.8,2.1,7.3,6.2,7.3
		c3.3,0,6.5-1.6,6.5-5.2V93.1h4.2v27h-4.2L370.3,115.7L370.3,115.7z"/>
	<path class="st0" d="M400.7,115.7h-0.2c-1.6,3.3-4.2,5-7.9,5c-6.8,0-11-5.5-11-14.1s4.2-14.1,11-14.1c3.7,0,6.5,1.6,7.9,5h0.2V81.4
		h4.2v38.7h-4.2V115.7L400.7,115.7z M400.7,111.4v-10c0-3-3.1-5.2-7-5.2c-4.7,0-7.6,3.2-7.6,8.1v4.6c0,4.8,2.9,8.1,7.6,8.1
		C397.5,116.9,400.7,114.9,400.7,111.4L400.7,111.4z"/>
</g>
<g id="IDpack">
	<path d="M130.4,73.8v-9.9h7.4V26.5h-7.4v-9.9h27.2v9.9h-7.4v37.4h7.4v9.9H130.4z"/>
	<path d="M168.1,16.5h21.6c15.2,0,25.2,9.6,25.2,28.6s-10,28.6-25.2,28.6h-21.6V16.5z M189.6,62.7c7.4,0,12-4,12-13.1v-8.9
		c0-9.1-4.6-13.1-12-13.1h-9.1v35.1H189.6z"/>
	<path d="M224.5,30.7h12.1V38h0.4c1.2-4.8,6-8.2,11.6-8.2c10.9,0,16.6,7.9,16.6,22.5s-5.7,22.5-16.6,22.5c-5.6,0-10.3-3.5-11.6-8.2
		h-0.4v23.6h-12.1L224.5,30.7L224.5,30.7z M252.6,56v-7.5c0-5.4-3.4-8.9-7.9-8.9s-7.9,2.4-7.9,6.3v12.7c0,3.9,3.4,6.3,7.9,6.3
		S252.6,61.4,252.6,56L252.6,56z"/>
	<path d="M306.2,73.8c-4.4,0-7.5-2.9-8.2-7.5h-0.5c-1.3,5.6-6.1,8.5-12.6,8.5c-8.6,0-13.4-5.1-13.4-12.5c0-9.1,7-13.5,18.5-13.5h6.8
		v-2.7c0-4.2-2-6.8-7.1-6.8s-7.4,2.5-9.3,5.1l-7.2-6.4c3.4-5.1,8.4-8.2,17.4-8.2c12.1,0,18.4,5.6,18.4,15.7v18.9h4v9.4L306.2,73.8
		L306.2,73.8z M296.8,60.7v-5.1h-5.9c-4.7,0-7.1,1.7-7.1,4.8v1.2c0,3.1,2,4.6,5.7,4.6C293.4,66.3,296.8,64.7,296.8,60.7L296.8,60.7z
		"/>
	<path d="M318.3,52.2c0-13.8,7.1-22.5,20.1-22.5c8.7,0,14.7,4.2,17.2,11.2l-9.8,4.3c-0.7-3.3-3.1-5.9-7.4-5.9
		c-4.9,0-7.5,3.5-7.5,8.9v8c0,5.4,2.5,8.9,7.5,8.9s6.8-3,8-6.4l9.4,4.1c-2.9,8.2-9,11.9-17.5,11.9C325.5,74.8,318.3,66,318.3,52.2
		L318.3,52.2z"/>
	<path d="M363.4,13.1h12.1v35.8h0.5l5.3-8l8.6-10.2h13.5l-14.4,16.5l16,26.6h-14.4L381,55.6l-5.4,6.1v12.1h-12.1L363.4,13.1
		L363.4,13.1z"/>
</g>
<path id="Cloud_-_Blue" class="st0" d="M65,45c4,0,7.9,1.9,10.5,5l2.7,3.2l4.2-0.3c0.3,0,0.5,0,0.8,0c5.9,0,10.8,4.6,11.1,10.6
	l0.2,4.2l3.6,2.2c2.5,1.6,4,4.3,4,7.3c0,4.8-3.8,8.6-8.5,8.6H52c-6.1,0-11.1-5.1-11.1-11.3c0-4.3,2.3-8.1,6-10l4.1-2.1l0.3-4.6
	C51.8,50.6,57.8,45,65,45 M65,36.8c-11.6,0-21.1,9.1-21.9,20.5c-6.4,3.3-10.5,9.9-10.5,17.3C32.7,85.3,41.4,94,52,94h41.6
	c9.2,0,16.7-7.5,16.7-16.8c0-5.9-3-11.2-7.8-14.3c-0.6-10.2-9-18.3-19.3-18.3c-0.5,0-0.9,0-1.4,0C77.7,39.7,71.5,36.8,65,36.8
	L65,36.8z"/>
<path id="Card_-_Black_00000135655750510655761500000007254379583478486935_" d="M98.1,0H8.2C3.7,0,0,3.7,0,8.2v57.2
	c0,4.5,3.7,8.2,8.2,8.2h16.4c0.1-2.8,0.6-5.6,1.5-8.2H8.2V28.6h89.9v12.3c3.3,2.1,6,5,8.2,8.3v-41C106.3,3.7,102.6,0,98.1,0z
	 M8.2,16.3V8.2h89.9v8.2H8.2z"/>
</svg>
