<?xml version="1.0" encoding="utf-8"?>
<!-- Generator: Adobe Illustrator 27.3.1, SVG Export Plug-In . SVG Version: 6.00 Build 0)  -->
<svg version="1.2" baseProfile="tiny" xmlns="http://www.w3.org/2000/svg" xmlns:xlink="http://www.w3.org/1999/xlink" x="0px"
	 y="0px" width="2400px" height="600px" viewBox="0 0 2400 600" overflow="visible" xml:space="preserve">
<g id="background">
	<rect fill="#279BD2" width="2400" height="600"/>
</g>
<g id="guides">
</g>
<g id="devices">
	<g>
		<g>
			<g>
				<path fill="#134F78" d="M1360.7,490.8h-24.2h-72.9h-12.2h-12h-68.1c-0.1,0.5-0.2,1-0.2,1.5v4.4c0,3.7,3,6.7,6.6,6.7h61.6h12
					h12.2h66.5h24.2c3.7,0,6.6-3,6.6-6.7v-4.4C1360.9,491.8,1360.8,491.3,1360.7,490.8z"/>
				<path fill="#0D3754" d="M1360.7,490.8h-24.2H1266v12.6h63.9h24.2c3.7,0,6.6-3,6.6-6.7v-4.4
					C1360.9,491.8,1360.8,491.3,1360.7,490.8z"/>
				<polygon fill="#CBCFD3" points="1290.5,499.4 1241.4,499.4 1241.7,494.8 1289.8,494.8 				"/>
				<rect x="1175.4" y="373.9" fill="#6ACAD8" width="181.3" height="108.2"/>
				<rect x="1266" y="373.9" fill="#5AB4BB" width="91" height="108.2"/>
				<path fill="#134F78" d="M1349,368.2h-166.1c-6.5,0-11.9,5.3-11.9,11.9V475c0,6.5,5.3,11.9,11.9,11.9H1349
					c6.5,0,11.9-5.3,11.9-11.9V380C1360.9,373.5,1355.5,368.2,1349,368.2z M1354.9,475c0,3.3-2.7,5.9-5.9,5.9h-166.1
					c-3.3,0-5.9-2.7-5.9-5.9V380c0-3.3,2.7-5.9,5.9-5.9H1349c3.3,0,5.9,2.7,5.9,5.9V475z"/>
				<path fill="#0D3754" d="M1349,368.2h-83v5.9h83c3.3,0,5.9,2.7,5.9,5.9V475c0,3.3-2.7,5.9-5.9,5.9h-83v5.9h83
					c6.5,0,11.9-5.3,11.9-11.9V380C1360.9,373.5,1355.5,368.2,1349,368.2z"/>
				<g>
					<path fill="#FFFFFF" d="M1234.2,394.1c0,0.7-0.6,1.3-1.3,1.3h-33.1c-0.7,0-1.3-0.6-1.3-1.3v-3.9c0-0.7,0.6-1.3,1.3-1.3h33.1
						c0.7,0,1.3,0.6,1.3,1.3V394.1z"/>
					<path fill="#FFFFFF" d="M1334,420.4c0,0.7-0.6,1.3-1.3,1.3H1199c-0.7,0-1.3-0.6-1.3-1.3v-20.1c0-0.7,0.6-1.3,1.3-1.3h133.7
						c0.7,0,1.3,0.6,1.3,1.3V420.4z"/>
					<path fill="#E6E7E8" d="M1334,449c0,0.7-0.6,1.3-1.3,1.3h-39.1c-0.7,0-1.3-0.6-1.3-1.3v-20.1c0-0.7,0.6-1.3,1.3-1.3h39.1
						c0.7,0,1.3,0.6,1.3,1.3V449z"/>
					<path fill="#FFFFFF" d="M1286.7,449c0,0.7-0.6,1.3-1.3,1.3h-39.1c-0.7,0-1.3-0.6-1.3-1.3v-20.1c0-0.7,0.6-1.3,1.3-1.3h39.1
						c0.7,0,1.3,0.6,1.3,1.3V449z"/>
					<path fill="#FFFFFF" d="M1239.4,449c0,0.7-0.6,1.3-1.3,1.3H1199c-0.7,0-1.3-0.6-1.3-1.3v-20.1c0-0.7,0.6-1.3,1.3-1.3h39.1
						c0.7,0,1.3,0.6,1.3,1.3V449z"/>
					<rect x="1197.7" y="457.9" fill="#FFFFFF" width="26.3" height="1.4"/>
					<rect x="1197.7" y="462.4" fill="#FFFFFF" width="41.7" height="1.4"/>
					<rect x="1245" y="462.4" fill="#FFFFFF" width="41.7" height="1.4"/>
					<rect x="1292.3" y="462.4" fill="#E6E7E8" width="41.7" height="1.4"/>
					<rect x="1197.7" y="467" fill="#FFFFFF" width="41.7" height="1.4"/>
					<rect x="1245" y="467" fill="#FFFFFF" width="41.7" height="1.4"/>
					<rect x="1292.3" y="467" fill="#E6E7E8" width="41.7" height="1.4"/>
					<rect x="1245" y="457.9" fill="#FFFFFF" width="41.7" height="1.4"/>
					<rect x="1292.3" y="457.9" fill="#E6E7E8" width="41.7" height="1.4"/>
					<path fill="#FFFFFF" d="M1279.3,394.1c0,0.7-0.6,1.3-1.3,1.3h-33.1c-0.7,0-1.3-0.6-1.3-1.3v-3.9c0-0.7,0.6-1.3,1.3-1.3h33.1
						c0.7,0,1.3,0.6,1.3,1.3V394.1z"/>
					<path fill="#E6E7E8" d="M1332.7,388.9h-24.3c0.2,0.4,0.3,0.8,0.3,1.3v3.9c0,0.5-0.1,0.9-0.3,1.3h24.3c0.7,0,1.3-0.6,1.3-1.3
						v-3.9C1334,389.5,1333.4,388.9,1332.7,388.9z"/>
					<path fill="#E6E7E8" d="M1305.4,388.9h-24.3c0.2,0.4,0.3,0.8,0.3,1.3v3.9c0,0.5-0.1,0.9-0.3,1.3h24.3c0.7,0,1.3-0.6,1.3-1.3
						v-3.9C1306.7,389.5,1306.1,388.9,1305.4,388.9z"/>
					<path fill="#E6E7E8" d="M1278,388.9H1266v6.5h11.9c0.7,0,1.3-0.6,1.3-1.3v-3.9C1279.3,389.5,1278.7,388.9,1278,388.9z"/>
					<path fill="#E6E7E8" d="M1332.7,399H1266v22.7h66.7c0.7,0,1.3-0.6,1.3-1.3v-20.1C1334,399.5,1333.4,399,1332.7,399z"/>
					<path fill="#E6E7E8" d="M1285.4,427.5H1266v22.7h19.4c0.7,0,1.3-0.6,1.3-1.3v-20.1C1286.7,428.1,1286.1,427.5,1285.4,427.5z"/>
					<rect x="1266" y="457.9" fill="#E6E7E8" width="20.7" height="1.4"/>
					<rect x="1266" y="462.4" fill="#E6E7E8" width="20.7" height="1.4"/>
					<rect x="1266" y="467" fill="#E6E7E8" width="20.7" height="1.4"/>
				</g>
			</g>
		</g>
		<g>
			<rect x="1054.4" y="388.6" fill="#6ACAD8" width="86.8" height="99.8"/>
			<rect x="1097.9" y="388.6" fill="#5AB4BB" width="43.4" height="99.8"/>
			<path fill="#134F78" d="M1135,379.1h-37.1h-37.1c-4.3,0-9.3,2-9.3,5.5v110c0,4.8,5,8.8,11.1,8.8h35.3h35.3
				c6.1,0,11.1-3.9,11.1-8.8v-110C1144.3,381.1,1139.3,379.1,1135,379.1z M1138.2,485.8h-40.3h-40.3v-92.6c1,0.3,2.1,0.5,3.2,0.5
				h37.1h37.1c1.1,0,2.2-0.2,3.2-0.5V485.8z"/>
			<path fill="#0D3754" d="M1135,379.1h-37.1h0v14.6h0h37.1c1.1,0,2.2-0.2,3.2-0.5v92.6h-40.3h0v17.6h0h35.3
				c6.1,0,11.1-3.9,11.1-8.8v-110C1144.3,381.1,1139.3,379.1,1135,379.1z"/>
			<path fill="#B2B5B9" d="M1109.4,496.9c-1.4,0-2.6-1.2-2.6-2.6c0-1.4,1.2-2.6,2.6-2.6c1.4,0,2.6,1.2,2.6,2.6
				C1112,495.7,1110.9,496.9,1109.4,496.9z"/>
			<path fill="#CBCFD3" d="M1086.3,496.9c-1.4,0-2.6-1.2-2.6-2.6c0-1.4,1.2-2.6,2.6-2.6c1.4,0,2.6,1.2,2.6,2.6
				C1088.9,495.7,1087.7,496.9,1086.3,496.9z"/>
			<g>
				<path fill="#FFFFFF" d="M1102.5,403.1c0,0.8-0.6,1.4-1.4,1.4h-35.3c-0.8,0-1.4-0.6-1.4-1.4v-4.2c0-0.8,0.6-1.4,1.4-1.4h35.3
					c0.8,0,1.4,0.6,1.4,1.4V403.1z"/>
				<path fill="#FFFFFF" d="M1131,454.7c0,0.5-0.4,1-1,1h-29.2c-0.5,0-1-0.4-1-1v-15c0-0.5,0.4-1,1-1h29.2c0.5,0,1,0.4,1,1V454.7z"
					/>
				<path fill="#FFFFFF" d="M1095.6,454.7c0,0.5-0.4,1-1,1h-29.2c-0.5,0-1-0.4-1-1v-15c0-0.5,0.4-1,1-1h29.2c0.5,0,1,0.4,1,1V454.7z
					"/>
				<rect x="1099.5" y="472.4" fill="#FFFFFF" width="19.7" height="1"/>
				<rect x="1099.8" y="465.2" fill="#FFFFFF" width="31.2" height="1"/>
				<rect x="1099.8" y="469.1" fill="#FFFFFF" width="31.2" height="1"/>
				<rect x="1099.8" y="479.7" fill="#FFFFFF" width="31.2" height="1"/>
				<rect x="1099.5" y="476" fill="#FFFFFF" width="31.2" height="1"/>
				<rect x="1099.8" y="461.4" fill="#FFFFFF" width="31.2" height="1"/>
				<path fill="#FFFFFF" d="M1129.1,409h-33.6h-6.8h-22.9c-0.8,0-1.4,0.7-1.4,1.4v22.4c0,0.8,0.7,1.4,1.4,1.4h22.9h6.8h33.6
					c0.8,0,1.4-0.6,1.4-1.4v-22.4C1130.6,409.7,1129.9,409,1129.1,409z"/>
				<g>
					<polygon fill="#FFFFFF" points="1095.6,461.4 1065.8,461.4 1064.5,461.4 1064.5,462.4 1067.2,462.4 1095.6,462.4 1095.6,462.4 
						1095.6,461.4 					"/>
					<polygon fill="#FFFFFF" points="1072.1,465.2 1064.5,465.2 1064.5,466.3 1072.1,466.3 1095.6,466.3 1095.6,466.3 1095.6,465.2 
						1095.6,465.2 					"/>
					<polygon fill="#FFFFFF" points="1084.1,473.4 1084.1,473.4 1084.1,472.4 1084.1,472.4 1072.1,472.4 1064.5,472.4 1064.5,473.4 
						1072.1,473.4 					"/>
					<polygon fill="#FFFFFF" points="1072.1,469.1 1064.5,469.1 1064.5,470.1 1072.1,470.1 1095.6,470.1 1095.6,470.1 1095.6,469.1 
						1095.6,469.1 					"/>
					<polygon fill="#FFFFFF" points="1076.5,477.1 1084.1,477.1 1084.1,476 1076.5,476 1072.1,476 1064.5,476 1064.5,477.1 
						1072.1,477.1 					"/>
					<polygon fill="#FFFFFF" points="1072.1,479.7 1064.5,479.7 1064.5,480.7 1072.1,480.7 1088,480.7 1095.6,480.7 1095.6,479.7 
						1088,479.7 					"/>
				</g>
				<path fill="#FFFFFF" d="M1129,397.5h-25.9c0.2,0.4,0.3,0.9,0.3,1.4v4.2c0,0.5-0.1,1-0.3,1.4h25.9c0.8,0,1.4-0.6,1.4-1.4v-4.2
					C1130.4,398.1,1129.8,397.5,1129,397.5z"/>
			</g>
			<g>
				<path fill="#CBCFD3" d="M1102.3,497.3c0,0.8-0.6,1.4-1.4,1.4h-6c-0.8,0-1.4-0.6-1.4-1.4v-6c0-0.8,0.6-1.4,1.4-1.4h6
					c0.8,0,1.4,0.6,1.4,1.4V497.3z"/>
				<path fill="#B2B5B9" d="M1100.9,489.9h-3v8.9h3c0.8,0,1.4-0.6,1.4-1.4v-6C1102.3,490.5,1101.7,489.9,1100.9,489.9z"/>
			</g>
		</g>
		<path fill="#134F78" d="M1562.6,350.2h-47.9c-5.3,0-9.6,4.3-9.6,9.6v134c0,5.3,4.3,9.6,9.6,9.6h47.9c5.3,0,9.6-4.3,9.6-9.6v-134
			C1572.2,354.5,1567.9,350.2,1562.6,350.2z"/>
		<path fill="#0D3754" d="M1562.6,350.2h-23.9v153.2h23.9c5.3,0,9.6-4.3,9.6-9.6v-134C1572.2,354.5,1567.9,350.2,1562.6,350.2z"/>
		<path fill="#B2B5B9" d="M1557.2,467.1c-2.6,0-4.8-2.1-4.8-4.8c0-2.6,2.1-4.8,4.8-4.8c2.6,0,4.8,2.1,4.8,4.8
			C1562,465,1559.8,467.1,1557.2,467.1z"/>
		<path fill="#B2B5B9" d="M1562.6,385.5c0,2.1-1.7,3.8-3.8,3.8h-40.2c-2.1,0-3.8-1.7-3.8-3.8V374c0-2.1,1.7-3.8,3.8-3.8h40.2
			c2.1,0,3.8,1.7,3.8,3.8V385.5z"/>
		<path fill="#CBCFD3" d="M1538.7,370.2h-20.1c-2.1,0-3.8,1.7-3.8,3.8v11.5c0,2.1,1.7,3.8,3.8,3.8h20.1V370.2z"/>
		<polygon fill="#6ACAD8" points="1758.8,357.6 1583.8,357.6 1583.8,470.6 1583.8,470.6 1758.8,470.6 1758.8,357.6 		"/>
		<polygon fill="#56ACB2" points="1758.8,357.6 1670.3,357.6 1670.3,470.6 1670.3,470.6 1758.8,470.6 1758.8,357.6 		"/>
		<path fill="#134F78" d="M1755.4,349.1h-170.1c-5.2,0-9.5,4.3-9.5,9.4v122.9c0,5.2,4.3,9.5,9.5,9.5h170.1c5.2,0,9.5-4.3,9.5-9.5
			V358.5C1764.8,353.3,1760.6,349.1,1755.4,349.1z M1755.4,358.5v109c-0.5-0.1-1.1-0.2-1.6-0.2h-166.8c-0.6,0-1.1,0.1-1.7,0.2v-109
			H1755.4z"/>
		<path fill="#134F78" d="M1708.1,473c0,2.1-1.7,3.8-3.8,3.8h-68c-2.1,0-3.8-1.7-3.8-3.8l0,0c0-2.1,1.7-3.8,3.8-3.8h68
			C1706.4,469.2,1708.1,470.9,1708.1,473L1708.1,473z"/>
		<path fill="#0D3754" d="M1755.4,349.1h-85.1v9.4h85.1v109c-0.5-0.1-1.1-0.2-1.6-0.2h-83.4v23.4h85.1c5.2,0,9.5-4.3,9.5-9.5V358.5
			C1764.8,353.3,1760.6,349.1,1755.4,349.1z"/>
		<path fill="#0D3754" d="M1704.3,469.2h-34v7.6h34c2.1,0,3.8-1.7,3.8-3.8C1708.1,470.9,1706.4,469.2,1704.3,469.2z"/>
		<path fill="#CBCFD3" d="M1675.9,478.5c0,3.1-2.5,5.6-5.6,5.6c-3.1,0-5.6-2.5-5.6-5.6c0-3.1,2.5-5.6,5.6-5.6
			C1673.4,472.9,1675.9,475.4,1675.9,478.5z"/>
		<path fill="#B2B5B9" d="M1670.3,472.9v11.2c3.1,0,5.6-2.5,5.6-5.6C1675.9,475.4,1673.4,472.9,1670.3,472.9z"/>
		<g>
			<path fill="#FFFFFF" d="M1640.3,373.9c0,0.7-0.5,1.2-1.2,1.2h-31c-0.7,0-1.2-0.5-1.2-1.2v-3.6c0-0.7,0.5-1.2,1.2-1.2h31
				c0.7,0,1.2,0.5,1.2,1.2V373.9z"/>
			<path fill="#FFFFFF" d="M1733.8,398.5c0,0.7-0.5,1.2-1.2,1.2h-125.3c-0.7,0-1.2-0.5-1.2-1.2v-18.8c0-0.7,0.5-1.2,1.2-1.2h125.3
				c0.7,0,1.2,0.5,1.2,1.2V398.5z"/>
			<path fill="#E6E7E8" d="M1732.6,378.4h-62.3v21.3h62.3c0.7,0,1.2-0.5,1.2-1.2v-18.8C1733.8,379,1733.3,378.4,1732.6,378.4z"/>
			<path fill="#E6E7E8" d="M1733.8,425.3c0,0.7-0.5,1.2-1.2,1.2H1696c-0.7,0-1.2-0.5-1.2-1.2v-18.8c0-0.7,0.5-1.2,1.2-1.2h36.6
				c0.7,0,1.2,0.5,1.2,1.2V425.3z"/>
			<path fill="#FFFFFF" d="M1689.5,425.3c0,0.7-0.5,1.2-1.2,1.2h-36.6c-0.7,0-1.2-0.5-1.2-1.2v-18.8c0-0.7,0.5-1.2,1.2-1.2h36.6
				c0.7,0,1.2,0.5,1.2,1.2V425.3z"/>
			<rect x="1694.3" y="447.4" fill="#E6E7E8" width="24.7" height="1.3"/>
			<rect x="1694.8" y="438.5" fill="#E6E7E8" width="39.1" height="1.3"/>
			<rect x="1694.8" y="443.3" fill="#E6E7E8" width="39.1" height="1.3"/>
			<rect x="1694.8" y="456.5" fill="#E6E7E8" width="39.1" height="1.3"/>
			<rect x="1694.3" y="452" fill="#E6E7E8" width="39.1" height="1.3"/>
			<rect x="1650.5" y="447.4" fill="#FFFFFF" width="24.7" height="1.3"/>
			<rect x="1650.5" y="452" fill="#FFFFFF" width="24.7" height="1.3"/>
			<rect x="1650.5" y="438.5" fill="#FFFFFF" width="39.1" height="1.3"/>
			<rect x="1650.5" y="438.5" fill="#FFFFFF" width="39.1" height="1.3"/>
			<rect x="1650.5" y="443.3" fill="#FFFFFF" width="39.1" height="1.3"/>
			<rect x="1650.5" y="456.5" fill="#FFFFFF" width="39.1" height="1.3"/>
			<rect x="1650.5" y="433.6" fill="#FFFFFF" width="39.1" height="1.3"/>
			<rect x="1694.8" y="433.6" fill="#E6E7E8" width="39.1" height="1.3"/>
			<path fill="#FFFFFF" d="M1644,405.2L1644,405.2h-36.6l0,0c-0.7,0-1.2,0.5-1.2,1.2v16.3v2.5c0,0.7,0.5,1.2,1.2,1.2h12.6h11.5h12.6
				c0.7,0,1.2-0.5,1.2-1.2v-2.5v-16.3C1645.2,405.8,1644.7,405.2,1644,405.2z"/>
			<g>
				<polygon fill="#FFFFFF" points="1630.8,434.9 1645.2,434.9 1645.2,433.6 1630.8,433.6 1625,433.6 1606.2,433.6 1606.2,434.9 
					1625.4,434.9 				"/>
				<polygon fill="#FFFFFF" points="1645.2,439.8 1645.2,438.5 1625.9,438.5 1606.2,438.5 1606.2,439.8 1626,439.8 				"/>
				<polygon fill="#FFFFFF" points="1645.2,444.6 1645.2,443.3 1626,443.3 1606.2,443.3 1606.2,444.6 1626,444.6 				"/>
				<polygon fill="#FFFFFF" points="1630.8,448.7 1631.1,448.7 1631.1,447.4 1630.8,447.4 1626,447.4 1606.2,447.4 1606.2,448.7 
					1626,448.7 				"/>
				<polygon fill="#FFFFFF" points="1626,452 1606.2,452 1606.2,453.3 1626,453.3 1630.8,453.3 1631.1,453.3 1631.1,452 1630.8,452 
									"/>
				<polygon fill="#FFFFFF" points="1645.2,456.5 1626,456.5 1606.2,456.5 1606.2,457.8 1626,457.8 1645.2,457.8 1645.5,457.8 
					1645.5,456.5 				"/>
			</g>
			<path fill="#FFFFFF" d="M1682.6,373.9c0,0.7-0.5,1.2-1.2,1.2h-31c-0.7,0-1.2-0.5-1.2-1.2v-3.6c0-0.7,0.5-1.2,1.2-1.2h31
				c0.7,0,1.2,0.5,1.2,1.2V373.9z"/>
			<path fill="#E6E7E8" d="M1732.6,369h-22.7c0.2,0.4,0.2,0.8,0.2,1.2v3.6c0,0.4-0.1,0.8-0.2,1.2h22.7c0.7,0,1.2-0.5,1.2-1.2v-3.6
				C1733.8,369.5,1733.3,369,1732.6,369z"/>
			<path fill="#E6E7E8" d="M1707,369h-22.7c0.2,0.4,0.2,0.8,0.2,1.2v3.6c0,0.4-0.1,0.8-0.2,1.2h22.7c0.7,0,1.2-0.5,1.2-1.2v-3.6
				C1708.2,369.5,1707.7,369,1707,369z"/>
			<path fill="#E6E7E8" d="M1681.4,369h-11v6.1h11c0.7,0,1.2-0.5,1.2-1.2v-3.6C1682.6,369.5,1682,369,1681.4,369z"/>
			<path fill="#E6E7E8" d="M1688.3,405.2h-18v21.3h18c0.7,0,1.2-0.5,1.2-1.2v-18.8C1689.5,405.8,1689,405.2,1688.3,405.2z"/>
			<rect x="1670.3" y="433.6" fill="#E6E7E8" width="19.2" height="1.3"/>
			<rect x="1670.3" y="443.3" fill="#E6E7E8" width="19.2" height="1.3"/>
			<rect x="1670.3" y="447.4" fill="#E6E7E8" width="4.8" height="1.3"/>
			<rect x="1670.3" y="456.5" fill="#E6E7E8" width="19.2" height="1.3"/>
		</g>
		<g>
			<path fill="#134F78" d="M1468,391.4h-26.3h0h-26.3c-3,0-6.6,2-6.6,4.9v99.1c0,4.3,3.6,7.9,7.9,7.9h25h0h25c4.3,0,7.9-3.6,7.9-7.9
				v-99.1C1474.6,393.4,1471.1,391.4,1468,391.4z M1470.3,488.4c-1.1-0.5-2.3-0.9-3.6-0.9h-25h0h-25c-1.3,0-2.5,0.3-3.6,0.9v-84.3
				c0.7,0.3,1.5,0.4,2.3,0.4h26.3h0h26.3c0.8,0,1.6-0.2,2.3-0.4V488.4z"/>
			<path fill="#0D3754" d="M1468,391.4h-26.3h0v13.2h0h26.3c0.8,0,1.6-0.2,2.3-0.4v84.3c-1.1-0.5-2.3-0.9-3.6-0.9h-25h0v15.8h0h25
				c4.3,0,7.9-3.6,7.9-7.9v-99.1C1474.6,393.4,1471.1,391.4,1468,391.4z"/>
			<rect x="1411.5" y="401.7" fill="#6ACAD8" width="60.6" height="88"/>
			<rect x="1441.7" y="401.7" fill="#5AB4BB" width="30.4" height="88"/>
			<g>
				<path fill="#FFFFFF" d="M1467.2,415.2c0,1-0.8,1.9-1.8,1.9h-47.2c-1,0-1.8-0.8-1.8-1.9v-5.5c0-1,0.8-1.8,1.8-1.8h47.2
					c1,0,1.8,0.8,1.8,1.8V415.2z"/>
				<rect x="1416.3" y="474.2" fill="#FFFFFF" width="15" height="0.8"/>
				<rect x="1443.1" y="474.2" fill="#E6E7E8" width="15" height="0.8"/>
				<rect x="1416.3" y="477" fill="#FFFFFF" width="15" height="0.8"/>
				<rect x="1416.3" y="468.8" fill="#FFFFFF" width="23.8" height="0.8"/>
				<rect x="1443.3" y="468.8" fill="#E6E7E8" width="23.8" height="0.8"/>
				<rect x="1416.3" y="471.7" fill="#FFFFFF" width="23.8" height="0.8"/>
				<rect x="1443.3" y="471.7" fill="#E6E7E8" width="23.8" height="0.8"/>
				<rect x="1443.3" y="479.8" fill="#E6E7E8" width="23.8" height="0.8"/>
				<rect x="1443.1" y="477" fill="#E6E7E8" width="23.8" height="0.8"/>
				<rect x="1416.3" y="479.8" fill="#FFFFFF" width="23.8" height="0.8"/>
				<rect x="1416.3" y="465.8" fill="#FFFFFF" width="23.8" height="0.8"/>
				<rect x="1443.3" y="465.8" fill="#E6E7E8" width="23.8" height="0.8"/>
				<path fill="#E6E7E8" d="M1467.3,460.4c0,0.4-0.3,0.7-0.7,0.7h-22.4c-0.4,0-0.7-0.3-0.7-0.7v-11.5c0-0.4,0.3-0.7,0.7-0.7h22.4
					c0.4,0,0.7,0.3,0.7,0.7V460.4z"/>
				<path fill="#FFFFFF" d="M1440.2,460.4c0,0.4-0.3,0.7-0.7,0.7h-22.4c-0.4,0-0.7-0.3-0.7-0.7v-11.5c0-0.4,0.3-0.7,0.7-0.7h22.4
					c0.4,0,0.7,0.3,0.7,0.7V460.4z"/>
				<path fill="#FFFFFF" d="M1466.2,422.6h-25.9h-5.2h-17.7c-0.6,0-1.1,0.5-1.1,1.1v17.3c0,0.6,0.5,1.1,1.1,1.1h17.7h5.2h25.9
					c0.6,0,1.1-0.5,1.1-1.1v-17.3C1467.3,423.1,1466.8,422.6,1466.2,422.6z"/>
				<path fill="#E6E7E8" d="M1465.3,407.8h-23.6v9.2h23.6c1,0,1.8-0.8,1.8-1.9v-5.5C1467.2,408.6,1466.3,407.8,1465.3,407.8z"/>
				<path fill="#E6E7E8" d="M1466.2,422.6h-24.5v19.5h24.5c0.6,0,1.1-0.5,1.1-1.1v-17.3C1467.3,423.1,1466.8,422.6,1466.2,422.6z"/>
			</g>
			<g>
				<path fill="#CBCFD3" d="M1445.5,499.2c0,0.7-0.6,1.2-1.2,1.2h-5.3c-0.7,0-1.2-0.6-1.2-1.2v-5.3c0-0.7,0.6-1.2,1.2-1.2h5.3
					c0.7,0,1.2,0.6,1.2,1.2V499.2z"/>
				<path fill="#B2B5B9" d="M1444.3,492.7h-2.6v7.7h2.6c0.7,0,1.2-0.6,1.2-1.2v-5.3C1445.5,493.2,1445,492.7,1444.3,492.7z"/>
			</g>
		</g>
	</g>
</g>
<g id="link">
	<path fill="#134F78" d="M2103.1,486.4h2.8c1.7,4.2,5.8,7.2,10.7,7.2h14.6v-23h-14.6c-4.8,0-9,3-10.7,7.2h-2.8v2.4h-283.2v-2.4h-2.8
		c-1.7-4.2-5.8-7.2-10.7-7.2h-14.6v23h14.6c4.8,0,9-3,10.7-7.2h2.8v-2.4h283.2V486.4z"/>
	<path fill="#134F78" d="M2117.1,264.6c-4.8,0-9,3-10.7,7.2h-2.8v2.5H2005c-8.3,0-15.1,6.8-15.1,15.1v124.9
		c0,6.3-5.1,11.3-11.3,11.3h-158.6v-2.3h-2.8c-1.7-4.2-5.8-7.2-10.7-7.2h-14.6v23h14.6c4.8,0,9-3,10.7-7.2h2.8v-2.5h158.6
		c8.3,0,15.1-6.8,15.1-15.1V289.4c0-6.3,5.1-11.3,11.3-11.3h98.6v2.3h2.8c1.7,4.2,5.8,7.2,10.7,7.2h14.6v-23H2117.1z"/>
	<path fill="#134F78" d="M2130.3,78.3c-4.8,0-9,3-10.7,7.2h-2.8v2.5h-164.5c-8.3,0-15.1,6.8-15.1,15.1v259.5
		c0,6.3-5.1,11.3-11.3,11.3h-105.9v-2.3h-2.8c-1.7-4.2-5.8-7.2-10.7-7.2h-14.6v23h14.6c4.8,0,9-3,10.7-7.2h2.8v-2.5h105.9
		c8.3,0,15.1-6.8,15.1-15.1V103.2c0-6.3,5.1-11.3,11.3-11.3h164.5v2.3h2.8c1.7,4.2,5.8,7.2,10.7,7.2h14.6v-23H2130.3z"/>
	<path fill="#134F78" d="M385.3,229.3h-2.8v2.5H244.2c-8.3,0-15.1,6.8-15.1,15.1v40.2h-2.2v2.8c-4.2,1.7-7.2,5.8-7.2,10.7v14.6h23
		v-14.6c0-4.8-3-9-7.2-10.7v-2.8h-2.6v-40.2c0-6.3,5.1-11.3,11.3-11.3h138.3v2.3h2.8c1.7,4.2,5.8,7.2,10.7,7.2h14.6v-23H396
		C391.1,222.1,387,225.1,385.3,229.3z"/>
	<path fill="#134F78" d="M540.5,229.3h2.8v2.5h138c8.3,0,15.1,6.8,15.1,15.1v40.2h2.2v2.8c4.2,1.7,7.2,5.8,7.2,10.7v14.6h-23v-14.6
		c0-4.8,3-9,7.2-10.7v-2.8h2.6v-40.2c0-6.3-5.1-11.3-11.3-11.3h-138v2.3h-2.8c-1.7,4.2-5.8,7.2-10.7,7.2h-14.6v-23h14.6
		C534.6,222.1,538.8,225.1,540.5,229.3z"/>
	<path fill="#134F78" d="M768.3,235.6c-6.3,0-11.3,5.1-11.3,11.3v39.7h2.6v2.8c4.2,1.7,7.2,5.8,7.2,10.7v14.6h-23v-14.6
		c0-4.8,3-9,7.2-10.7v-2.8h2.2v-39.7c0-8.3,6.8-15.1,15.1-15.1h612.1c8.3,0,15.1,6.8,15.1,15.1v39.7h2.2v2.8
		c4.2,1.7,7.2,5.8,7.2,10.7v14.6h-23v-14.6c0-4.8,3-9,7.2-10.7v-2.8h2.6v-39.7c0-6.3-5.1-11.3-11.3-11.3H768.3z"/>
</g>
<g id="logo" display="none">
	<g display="inline">
		<g>
			<path fill="#FFFFFF" d="M1025.4,125.1c-4-48.4-44.6-86.5-94.1-86.5c-35.6,0-66.6,19.7-82.7,48.8c-6.2-1.6-12.8-2.5-19.5-2.5
				c-29.7,0-55.4,16.9-68.1,41.6c-5.6-1.3-11.3-2-17.3-2c-42.3,0-76.5,34.3-76.5,76.5c0,40.3,31.2,73.4,70.8,76.3
				c1,0.1,2.1,0.2,3.1,0.2h278.2c1.4,0,2.7-0.1,4.1-0.3c38.8-3.7,69.2-36.4,69.2-76.2C1092.6,162,1063.3,129.7,1025.4,125.1z"/>
			<path fill="#E6E7E8" d="M683.7,218c0-42.3,34.3-76.5,76.5-76.5c5.9,0,11.7,0.7,17.3,2c12.7-24.7,38.4-41.6,68.1-41.6
				c6.7,0,13.3,0.9,19.5,2.5c16.1-29.1,47.1-48.8,82.7-48.8c22.2,0,42.6,7.7,58.7,20.5c-17.2-22.8-44.5-37.5-75.3-37.5
				c-35.6,0-66.6,19.7-82.7,48.8c-6.2-1.6-12.8-2.5-19.5-2.5c-29.7,0-55.4,16.9-68.1,41.6c-5.6-1.3-11.3-2-17.3-2
				c-42.3,0-76.5,34.3-76.5,76.5c0,25.1,12.1,47.3,30.7,61.3C689,249.9,683.7,234.6,683.7,218z"/>
		</g>
		<g id="Vector_Smart_Object_2_">
			<g>
				<g>
				</g>
				<g>
				</g>
				<g>
				</g>
			</g>
			<g>
				<path fill="none" d="M844.5,175.4h33.3c5.7,0,10.3-4.6,10.3-10.3c0-3.9-2.2-7.4-5.6-9.2l-1.1-0.6v-1.5c0-6.9-5.6-12.6-12.6-12.6
					c-0.6,0-1.2,0-1.8,0.1l-1.2,0.2l-0.7-1c-2.8-3.8-7.3-6.1-12-6.1c-8.2,0-14.8,6.6-14.8,14.8v1.4l-1.3,0.5
					c-4.5,1.9-7.5,6.1-7.7,11c2.4,0.8,4.7,1.9,6.9,3.3C840,168,842.6,171.4,844.5,175.4z"/>
				<path fill="none" d="M831.7,180.3c-2.5-5-7.1-7.6-13.3-7.2v43.7c4,0.1,7.5-0.7,10.5-3.5c2.4-2.3,3.7-5.3,4.5-8.5
					c1.3-5.1,1.3-10.3,0.7-15.6C833.7,186.2,833.1,183.1,831.7,180.3z"/>
				<path fill="#231F20" d="M885.5,152.8c-0.5-8.8-7.8-15.7-16.7-15.7c-0.4,0-0.8,0-1.2,0c-3.6-4.3-8.9-6.8-14.6-6.8
					c-10,0-18.2,7.8-18.9,17.6c-5.1,2.6-8.4,7.6-9,13.2c1.4,0.2,2.8,0.6,4.1,1c0.2-4.8,3.2-9.1,7.7-11l1.3-0.5v-1.4
					c0-8.2,6.7-14.8,14.8-14.8c4.7,0,9.2,2.3,12,6.1l0.7,1l1.2-0.2c0.6-0.1,1.2-0.1,1.8-0.1c6.9,0,12.6,5.6,12.6,12.6v1.5l1.1,0.6
					c3.5,1.8,5.6,5.3,5.6,9.2c0,5.7-4.6,10.3-10.3,10.3h-33.3c0.6,1.3,1.2,2.7,1.6,4.2h31.7c8,0,14.5-6.5,14.5-14.5
					C892.3,160,889.7,155.4,885.5,152.8z"/>
				<path fill="#231F20" d="M836.1,165.4c-2.2-1.5-4.5-2.5-6.9-3.3c-1.3-0.4-2.7-0.8-4.1-1c-1.3-0.2-2.7-0.4-4.1-0.4
					c-5.4-0.3-10.8-0.1-16.2-0.2c-0.1,0-0.1,0.1-0.2,0.1v68.9c0.2,0,0.3,0.1,0.3,0.1c5.6-0.1,11.2-0.1,16.7-0.2
					c3.3-0.1,6.6-0.7,9.6-2.1c6.9-3.1,11.6-8.4,14.3-15.5c1.6-4.1,2.2-8.5,2.4-12.9c0.3-6.2,0-12.4-1.7-18.5
					c-0.1-0.3-0.2-0.6-0.3-0.8c-0.4-1.4-1-2.8-1.6-4.2C842.6,171.4,840,168,836.1,165.4z M833.3,204.8c-0.8,3.2-2.1,6.1-4.5,8.5
					c-2.9,2.8-6.5,3.6-10.5,3.5v-43.7c6.2-0.4,10.9,2.2,13.3,7.2c1.4,2.8,2.1,5.9,2.4,9C834.6,194.5,834.6,199.7,833.3,204.8z"/>
				<path fill="#339AD6" d="M780.6,160.6h-22.2c-1,0-1.8,0.8-1.8,1.8v65.2c0,1,0.8,1.8,1.8,1.8h22.2V160.6z"/>
				<path fill="#339AD6" d="M798.3,229.5c1,0,1.8-0.8,1.8-1.8v-65.2c0-1-0.8-1.8-1.8-1.8h-4.2v68.9H798.3z"/>
				<rect x="780.6" y="160.6" fill="#231F20" width="13.4" height="68.9"/>
			</g>
		</g>
		<g id="Vector_Smart_Object_00000084507888195343472740000014874709277977073852_">
			<g>
				<g>
				</g>
				<g>
				</g>
				<g>
				</g>
			</g>
			<g>
				<path fill="none" d="M831.7,180.3c-2.5-5-7.1-7.6-13.3-7.2v43.7c4,0.1,7.5-0.7,10.5-3.5c2.4-2.3,3.7-5.3,4.5-8.5
					c1.3-5.1,1.3-10.3,0.7-15.6C833.7,186.2,833.1,183.1,831.7,180.3z"/>
				<path fill="none" d="M844.5,175.4h33.3c5.7,0,10.3-4.6,10.3-10.3c0-3.9-2.2-7.4-5.6-9.2l-1.1-0.6v-1.5c0-6.9-5.6-12.6-12.6-12.6
					c-0.6,0-1.2,0-1.8,0.1l-1.2,0.2l-0.7-1c-2.8-3.8-7.3-6.1-12-6.1c-8.2,0-14.8,6.6-14.8,14.8v1.4l-1.3,0.5
					c-4.5,1.9-7.5,6.1-7.7,11c2.4,0.8,4.7,1.9,6.9,3.3C840,168,842.6,171.4,844.5,175.4z"/>
				<path fill="#231F20" d="M885.5,152.8c-0.5-8.8-7.8-15.7-16.7-15.7c-0.4,0-0.8,0-1.2,0c-3.6-4.3-8.9-6.8-14.6-6.8
					c-10,0-18.2,7.8-18.9,17.6c-5.1,2.6-8.4,7.6-9,13.2c1.4,0.2,2.8,0.6,4.1,1c0.2-4.8,3.2-9.1,7.7-11l1.3-0.5v-1.4
					c0-8.2,6.7-14.8,14.8-14.8c4.7,0,9.2,2.3,12,6.1l0.7,1l1.2-0.2c0.6-0.1,1.2-0.1,1.8-0.1c6.9,0,12.6,5.6,12.6,12.6v1.5l1.1,0.6
					c3.5,1.8,5.6,5.3,5.6,9.2c0,5.7-4.6,10.3-10.3,10.3h-33.3c0.6,1.3,1.2,2.7,1.6,4.2h31.7c8,0,14.5-6.5,14.5-14.5
					C892.3,160,889.7,155.4,885.5,152.8z"/>
				<path fill="#231F20" d="M836.1,165.4c-2.2-1.5-4.5-2.5-6.9-3.3c-1.3-0.4-2.7-0.8-4.1-1c-1.3-0.2-2.7-0.4-4.1-0.4
					c-5.4-0.3-10.8-0.1-16.2-0.2c-0.1,0-0.1,0.1-0.2,0.1v68.9c0.2,0,0.3,0.1,0.3,0.1c5.6-0.1,11.2-0.1,16.7-0.2
					c3.3-0.1,6.6-0.7,9.6-2.1c6.9-3.1,11.6-8.4,14.3-15.5c1.6-4.1,2.2-8.5,2.4-12.9c0.3-6.2,0-12.4-1.7-18.5
					c-0.1-0.3-0.2-0.6-0.3-0.8c-0.4-1.4-1-2.8-1.6-4.2C842.6,171.4,840,168,836.1,165.4z M833.3,204.8c-0.8,3.2-2.1,6.1-4.5,8.5
					c-2.9,2.8-6.5,3.6-10.5,3.5v-43.7c6.2-0.4,10.9,2.2,13.3,7.2c1.4,2.8,2.1,5.9,2.4,9C834.6,194.5,834.6,199.7,833.3,204.8z"/>
				<path fill="#339AD6" d="M780.6,160.6h-22.2c-1,0-1.8,0.8-1.8,1.8v65.2c0,1,0.8,1.8,1.8,1.8h22.2V160.6z"/>
				<path fill="#339AD6" d="M798.3,229.5c1,0,1.8-0.8,1.8-1.8v-65.2c0-1-0.8-1.8-1.8-1.8h-4.2v68.9H798.3z"/>
				<rect x="780.6" y="160.6" fill="#231F20" width="13.4" height="68.9"/>
			</g>
		</g>
		<g id="Vector_Smart_Object_00000166656698836496180050000014496709460010849958_">
			<g>
				<g>
				</g>
				<g>
				</g>
				<g>
				</g>
			</g>
			<g>
				<path fill="none" d="M844.5,175.4h33.3c5.7,0,10.3-4.6,10.3-10.3c0-3.9-2.2-7.4-5.6-9.2l-1.1-0.6v-1.5c0-6.9-5.6-12.6-12.6-12.6
					c-0.6,0-1.2,0-1.8,0.1l-1.2,0.2l-0.7-1c-2.8-3.8-7.3-6.1-12-6.1c-8.2,0-14.8,6.6-14.8,14.8v1.4l-1.3,0.5
					c-4.5,1.9-7.5,6.1-7.7,11c2.4,0.8,4.7,1.9,6.9,3.3C840,168,842.6,171.4,844.5,175.4z"/>
				<path fill="none" d="M831.7,180.3c-2.5-5-7.1-7.6-13.3-7.2v43.7c4,0.1,7.5-0.7,10.5-3.5c2.4-2.3,3.7-5.3,4.5-8.5
					c1.3-5.1,1.3-10.3,0.7-15.6C833.7,186.2,833.1,183.1,831.7,180.3z"/>
				<path fill="#231F20" d="M885.5,152.8c-0.5-8.8-7.8-15.7-16.7-15.7c-0.4,0-0.8,0-1.2,0c-3.6-4.3-8.9-6.8-14.6-6.8
					c-10,0-18.2,7.8-18.9,17.6c-5.1,2.6-8.4,7.6-9,13.2c1.4,0.2,2.8,0.6,4.1,1c0.2-4.8,3.2-9.1,7.7-11l1.3-0.5v-1.4
					c0-8.2,6.7-14.8,14.8-14.8c4.7,0,9.2,2.3,12,6.1l0.7,1l1.2-0.2c0.6-0.1,1.2-0.1,1.8-0.1c6.9,0,12.6,5.6,12.6,12.6v1.5l1.1,0.6
					c3.5,1.8,5.6,5.3,5.6,9.2c0,5.7-4.6,10.3-10.3,10.3h-33.3c0.6,1.3,1.2,2.7,1.6,4.2h31.7c8,0,14.5-6.5,14.5-14.5
					C892.3,160,889.7,155.4,885.5,152.8z"/>
				<path fill="#231F20" d="M836.1,165.4c-2.2-1.5-4.5-2.5-6.9-3.3c-1.3-0.4-2.7-0.8-4.1-1c-1.3-0.2-2.7-0.4-4.1-0.4
					c-5.4-0.3-10.8-0.1-16.2-0.2c-0.1,0-0.1,0.1-0.2,0.1v68.9c0.2,0,0.3,0.1,0.3,0.1c5.6-0.1,11.2-0.1,16.7-0.2
					c3.3-0.1,6.6-0.7,9.6-2.1c6.9-3.1,11.6-8.4,14.3-15.5c1.6-4.1,2.2-8.5,2.4-12.9c0.3-6.2,0-12.4-1.7-18.5
					c-0.1-0.3-0.2-0.6-0.3-0.8c-0.4-1.4-1-2.8-1.6-4.2C842.6,171.4,840,168,836.1,165.4z M833.3,204.8c-0.8,3.2-2.1,6.1-4.5,8.5
					c-2.9,2.8-6.5,3.6-10.5,3.5v-43.7c6.2-0.4,10.9,2.2,13.3,7.2c1.4,2.8,2.1,5.9,2.4,9C834.6,194.5,834.6,199.7,833.3,204.8z"/>
				<path fill="#339AD6" d="M798.3,229.5c1,0,1.8-0.8,1.8-1.8v-65.2c0-1-0.8-1.8-1.8-1.8h-4.2v68.9H798.3z"/>
				<path fill="#339AD6" d="M780.6,160.6h-22.2c-1,0-1.8,0.8-1.8,1.8v65.2c0,1,0.8,1.8,1.8,1.8h22.2V160.6z"/>
				<rect x="780.6" y="160.6" fill="#231F20" width="13.4" height="68.9"/>
			</g>
		</g>
	</g>
	<g display="inline">
		<g>
			<path fill="none" d="M2931.1-327.6c-6,0-10.6,0.5-13.7,1.2v71.4c3,0.5,7.2,0.7,11.8,0.7c25,0,38.5-14,38.5-38.4
				C2967.9-314.1,2955.8-327.6,2931.1-327.6z"/>
			<path fill="none" d="M2955.9-717c0.7-0.2,1.2-0.6,1.6-1.1c0.4-0.5,0.6-1.1,0.6-1.8c0-0.6-0.2-1.2-0.6-1.7
				c-0.4-0.5-0.9-0.9-1.6-1.1c-0.7-0.2-2.4-0.3-5-0.3h-1.9v6.3h1.9C2953.5-716.7,2955.2-716.8,2955.9-717z"/>
			<path fill="none" d="M2112.3-432.9c15.7,0,28.7-6.3,39.1-18.8c10.4-12.6,15.6-33.2,15.6-61.8c0-26.7-5.4-46.6-16.1-59.5
				c-10.7-13-24-19.4-39.9-19.4c-16.5,0-30.2,6.4-41.1,19.1c-10.9,12.7-16.3,31.6-16.3,56.5c0,28.7,5.7,49.8,17,63.5
				C2082.1-439.7,2096-432.9,2112.3-432.9z"/>
			<path fill="none" d="M2323.1-485.4c-8.8,6.2-13.2,14.2-13.2,23.8c0,9.4,3.5,17.6,10.6,24.5c7,6.9,16,10.3,26.9,10.3
				c12.2,0,23.8-4,34.8-12c8.2-6.1,13.5-13.5,16.1-22.3c1.8-5.8,2.6-16.7,2.6-32.9v-13.4c-8.6,2.9-22.3,6.3-41.1,10.3
				C2341.1-493.2,2328.9-489.3,2323.1-485.4z"/>
			<path fill="none" d="M2762.4-253.8c18.5,0,29-17.1,29-37.6c0-18-9.4-36.8-28.9-36.8c-19.3,0-29,17.9-29,37.7
				C2733.5-271.1,2744-253.8,2762.4-253.8z"/>
			<path fill="none" d="M1850.1-680.5c-14.7-29.8-42.7-45.3-79.9-43v262.2c23.8,0.7,45.3-4.2,62.7-21.1c14.5-14,22.5-31.7,27.2-50.9
				c7.6-30.8,7.6-62.1,4.4-93.4C1862.5-645.4,1858.5-663.5,1850.1-680.5z"/>
			<path fill="none" d="M1927.2-710.2H2127c34.1,0,61.9-27.8,61.9-61.9c0-23.4-12.9-44.5-33.8-55.2l-6.8-3.5v-9
				c0-41.6-33.8-75.4-75.4-75.4c-3.8,0-7.4,0.3-11,0.8l-7.5,1.1l-4.5-6.1c-16.7-22.8-43.6-36.4-71.8-36.4c-49.1,0-89,39.9-89,88.9
				v8.3l-7.7,3.2c-27,11.3-44.8,36.8-46.3,65.7c14.5,4.6,28.5,11.2,41.6,19.9C1900-754.2,1916.1-733.9,1927.2-710.2z"/>
			<path fill="none" d="M2945.4-700c2.8,1.6,5.7,2.3,8.7,2.3c3.1,0,6-0.8,8.7-2.3c2.8-1.6,4.9-3.7,6.5-6.5c1.6-2.8,2.3-5.7,2.3-8.7
				c0-3.1-0.8-6-2.4-8.8c-1.6-2.8-3.8-5-6.5-6.5c-2.8-1.5-5.6-2.3-8.6-2.3s-5.9,0.8-8.6,2.3c-2.8,1.5-4.9,3.7-6.5,6.5
				c-1.6,2.8-2.4,5.8-2.4,8.8c0,3.1,0.8,6,2.3,8.7C2940.5-703.7,2942.6-701.5,2945.4-700z M2944.2-726.7h4.7c4.4,0,6.9,0,7.4,0.1
				c1.6,0.1,2.8,0.4,3.6,0.9s1.6,1.2,2.2,2.2c0.6,1,0.9,2.1,0.9,3.3c0,1.7-0.5,3.1-1.6,4.3c-1.1,1.2-2.6,1.9-4.6,2.2
				c0.7,0.3,1.2,0.6,1.6,0.9s0.9,0.9,1.6,1.8c0.2,0.2,0.7,1.2,1.7,2.8l2.7,4.7h-5.8l-1.9-3.8c-1.3-2.5-2.4-4.1-3.2-4.8
				c-0.9-0.7-1.9-1-3.2-1h-1.2v9.5h-4.7V-726.7z"/>
			<path fill="#231F20" d="M1864.5-874.9c-30.4,15.6-50.6,45.5-53.9,79.4c8.4,1.4,16.6,3.4,24.6,6c1.5-28.9,19.3-54.5,46.3-65.7
				l7.7-3.2v-8.3c0-49,39.9-88.9,89-88.9c28.2,0,55.1,13.6,71.8,36.4l4.5,6.1l7.5-1.1c3.5-0.5,7.2-0.8,11-0.8
				c41.6,0,75.4,33.8,75.4,75.4v9l6.8,3.5c20.8,10.6,33.8,31.8,33.8,55.2c0,34.1-27.8,61.9-61.9,61.9h-199.8c3.7,8,6.9,16.3,9.6,25
				H2127c47.9,0,86.9-39,86.9-86.9c0-30.3-15.4-57.8-40.8-73.7c-3.1-52.6-46.9-94.4-100.3-94.4c-2.4,0-4.9,0.1-7.3,0.3
				c-21.5-25.7-53.7-40.8-87.4-40.8h-0.1C1918-980.7,1868.7-934,1864.5-874.9z"/>
			<path fill="#676767" d="M1987-640.1v351.9h67.5v-128.4c12.6,13.6,24.7,23.2,36.1,28.8c11.4,5.6,24.2,8.4,38.3,8.4
				c29.6,0,54.8-11.8,75.6-35.4c20.8-23.6,31.2-56.7,31.2-99.3c0-41.4-10.3-73.8-31-97c-20.6-23.2-45.8-34.8-75.4-34.8
				c-17,0-32.4,4-46.3,12c-13.9,8-25,18.4-33.1,31.2v-37.5H1987z M2070-573.4c10.9-12.7,24.6-19.1,41.1-19.1
				c15.8,0,29.1,6.5,39.9,19.4c10.7,13,16.1,32.8,16.1,59.5c0,28.7-5.2,49.3-15.6,61.8c-10.4,12.6-23.4,18.8-39.1,18.8
				c-16.3,0-30.2-6.8-41.5-20.5c-11.4-13.7-17-34.8-17-63.5C2053.7-541.9,2059.1-560.7,2070-573.4z"/>
			<path fill="#676767" d="M2335.3-534.9c-23.4,4.5-41.3,9.7-53.7,15.7c-12.4,6-22,14.6-28.9,25.9c-6.9,11.3-10.3,24.1-10.3,38.5
				c0,21.8,7.6,39.8,22.7,54c15.1,14.2,35.8,21.4,62.1,21.4c14.9,0,28.9-2.8,42-8.4c13.1-5.6,25.4-14,37-25.2
				c0.5,1.3,1.3,3.9,2.4,7.9c2.6,8.8,4.7,15.4,6.5,19.9h66.7c-5.9-12.2-10-23.6-12.1-34.2c-2.2-10.6-3.2-27.2-3.2-49.6l0.7-78.7
				c0-29.3-3-49.4-9-60.4c-6-11-16.4-20-31.1-27.1c-14.7-7.1-37.1-10.7-67.2-10.7c-33.1,0-58.1,5.9-74.9,17.8
				c-16.8,11.8-28.7,30.1-35.5,54.7l61.2,11c4.2-11.8,9.6-20.1,16.3-24.8c6.7-4.7,16.1-7.1,28.1-7.1c17.8,0,29.8,2.8,36.2,8.3
				c6.4,5.5,9.6,14.8,9.6,27.7v6.7C2388.7-546.3,2366.9-540.8,2335.3-534.9z M2400.9-494.1c0,16.2-0.9,27.1-2.6,32.9
				c-2.6,8.8-7.9,16.2-16.1,22.3c-11,8-22.6,12-34.8,12c-10.9,0-19.8-3.4-26.9-10.3c-7-6.9-10.6-15-10.6-24.5
				c0-9.6,4.4-17.5,13.2-23.8c5.8-3.8,18-7.8,36.7-11.8c18.7-4,32.4-7.4,41.1-10.3V-494.1z"/>
			<path fill="#676767" d="M2613.9-592.8c12.6,0,22.9,3.4,30.8,10.1c7.9,6.7,13,16.7,15.2,30l66.5-12c-8-27.4-21.2-47.7-39.5-61.1
				c-18.3-13.4-43-20-74.1-20c-37.9,0-68,11.7-90.3,35.2c-22.2,23.4-33.4,56.2-33.4,98.3c0,41.6,11.1,74.2,33.2,97.7
				c22.2,23.5,51.9,35.3,89.2,35.3c32.8,0,59-7.8,78.5-23.3c19.5-15.5,32.7-38.5,39.6-68.9l-66.3-11.3c-3.4,17.8-9.1,30.3-17.3,37.6
				c-8.2,7.3-18.6,10.9-31.4,10.9c-17.1,0-30.8-6.2-40.9-18.7c-10.2-12.5-15.2-33.9-15.2-64.1c0-27.2,5-46.6,15-58.2
				C2583.6-587,2597.1-592.8,2613.9-592.8z"/>
			<polygon fill="#676767" points="2975.2,-640.1 2892.1,-640.1 2813.1,-550.3 2813.1,-737 2745.7,-737 2745.7,-385.1 
				2813.1,-385.1 2813.1,-466.7 2844.6,-499.6 2908.7,-385.1 2981.4,-385.1 2888,-546.9 			"/>
			<path fill="#010101" d="M2943.2-696.3c3.4,1.9,7.1,2.9,10.9,2.9s7.4-1,10.9-2.9c3.4-1.9,6.1-4.6,8.1-8.1
				c1.9-3.4,2.9-7.1,2.9-10.9c0-3.8-1-7.5-2.9-11c-2-3.5-4.7-6.2-8.1-8c-3.4-1.9-7-2.8-10.8-2.8s-7.3,0.9-10.8,2.8
				c-3.4,1.9-6.1,4.6-8.1,8c-2,3.5-2.9,7.1-2.9,11c0,3.8,1,7.4,2.9,10.9C2937.1-700.9,2939.8-698.2,2943.2-696.3z M2939-724
				c1.6-2.8,3.8-5,6.5-6.5c2.8-1.5,5.6-2.3,8.6-2.3s5.9,0.8,8.6,2.3c2.8,1.5,4.9,3.7,6.5,6.5c1.6,2.8,2.4,5.8,2.4,8.8
				c0,3.1-0.8,6-2.3,8.7c-1.6,2.8-3.7,4.9-6.5,6.5c-2.8,1.6-5.7,2.3-8.7,2.3c-3,0-5.9-0.8-8.7-2.3c-2.8-1.6-4.9-3.7-6.5-6.5
				c-1.5-2.8-2.3-5.7-2.3-8.7C2936.6-718.3,2937.4-721.2,2939-724z"/>
			<path fill="#010101" d="M2948.9-713h1.2c1.3,0,2.4,0.3,3.2,1c0.9,0.7,1.9,2.2,3.2,4.8l1.9,3.8h5.8l-2.7-4.7
				c-1-1.7-1.5-2.6-1.7-2.8c-0.7-0.9-1.2-1.5-1.6-1.8s-0.9-0.6-1.6-0.9c2-0.3,3.5-1,4.6-2.2c1.1-1.2,1.6-2.6,1.6-4.3
				c0-1.2-0.3-2.3-0.9-3.3c-0.6-1-1.3-1.7-2.2-2.2s-2.1-0.8-3.6-0.9c-0.5,0-3-0.1-7.4-0.1h-4.7v23.2h4.7V-713z M2948.9-723h1.9
				c2.7,0,4.4,0.1,5,0.3c0.7,0.2,1.2,0.6,1.6,1.1c0.4,0.5,0.6,1.1,0.6,1.7c0,0.7-0.2,1.3-0.6,1.8c-0.4,0.5-0.9,0.9-1.6,1.1
				s-2.3,0.3-5.1,0.3h-1.9V-723z"/>
			<path fill="#231F20" d="M1876.8-769.7c-13.1-8.8-27.1-15.3-41.6-19.9c-8-2.6-16.3-4.5-24.6-6c-8-1.4-16.1-2.2-24.3-2.6
				c-32.3-1.6-64.7-0.8-97-1c-0.4,0-0.9,0.4-1.3,0.5v413.4c1.1,0.2,1.5,0.4,2,0.4c33.5-0.4,67-0.3,100.5-1.4
				c19.9-0.6,39.5-4.1,57.9-12.4c41.7-18.9,69.6-50.7,85.6-93.1c9.4-24.9,13.2-50.9,14.5-77.3c1.9-37.5,0.1-74.7-10.2-111
				c-0.5-1.7-1-3.4-1.5-5.1c-2.7-8.7-5.8-17-9.6-25C1916.1-733.9,1900-754.2,1876.8-769.7z M1860.1-533.3
				c-4.8,19.2-12.7,36.9-27.2,50.9c-17.5,16.9-39,21.8-62.7,21.1v-262.2c37.2-2.3,65.2,13.2,79.9,43c8.4,17,12.5,35.1,14.4,53.8
				C1867.6-595.4,1867.7-564.1,1860.1-533.3z"/>
			<path fill="#339AD6" d="M1400-396.3c0,6.1,5,11.1,11.1,11.1H1544v-413.6h-132.9c-6.1,0-11.1,5-11.1,11.1V-396.3z"/>
			<path fill="#339AD6" d="M1649.9-385.2c6.1,0,11.1-5,11.1-11.1v-391.5c0-6.1-5-11.1-11.1-11.1h-25.4v413.6H1649.9z"/>
			<rect x="1544" y="-798.9" fill="#231F20" width="80.5" height="413.6"/>
			<rect x="2187.5" y="-336.2" fill="#339AD6" width="11.7" height="90.5"/>
			<path fill="#339AD6" d="M2219.6-336.2v90.5h11v-38.7c0-15-0.3-25.9-0.9-37.3l0.4-0.1c4.6,9.8,10.6,20.1,16.9,30.2l28.7,45.9h11.8
				v-90.5h-11v37.9c0,14.1,0.3,25.1,1.3,37.2l-0.3,0.1c-4.3-9.3-9.5-18.8-16.2-29.4l-29-45.8H2219.6z"/>
			<polygon fill="#339AD6" points="2365.4,-245.7 2365.4,-326.3 2393,-326.3 2393,-336.2 2326,-336.2 2326,-326.3 2353.6,-326.3 
				2353.6,-245.7 			"/>
			<polygon fill="#339AD6" points="2470.4,-245.7 2470.4,-336.2 2458.5,-336.2 2458.5,-298.4 2414.8,-298.4 2414.8,-336.2 
				2403.1,-336.2 2403.1,-245.7 2414.8,-245.7 2414.8,-288.2 2458.5,-288.2 2458.5,-245.7 			"/>
			<polygon fill="#339AD6" points="2539.5,-326.4 2539.5,-336.2 2490.6,-336.2 2490.6,-245.7 2541.5,-245.7 2541.5,-255.5 
				2502.3,-255.5 2502.3,-288.2 2537.5,-288.2 2537.5,-297.8 2502.3,-297.8 2502.3,-326.4 			"/>
			<path fill="#339AD6" d="M2627.4-327.9c7.5,0,13.8,1.6,18.3,3.8l2.8-9.5c-3.1-1.6-10.2-4-21.5-4c-28.1,0-47.3,19.2-47.3,47.5
				c0,29.7,19.2,45.8,44.7,45.8c11,0,19.6-2.1,23.9-4.3l-2.4-9.3c-4.7,2.3-11.9,3.8-19.1,3.8c-22,0-34.8-14.2-34.8-36.4
				C2592.1-314.3,2606.2-327.9,2627.4-327.9z"/>
			<polygon fill="#339AD6" points="2663,-336.2 2663,-245.7 2713.4,-245.7 2713.4,-255.5 2674.7,-255.5 2674.7,-336.2 			"/>
			<path fill="#339AD6" d="M2761.7-244.2c23.1,0,42-16.5,42-47.7c0-26.9-16-45.8-40.7-45.8c-24.2,0-42,18.8-42,47.5
				C2721-262.8,2737.8-244.2,2761.7-244.2z M2762.5-328.2c19.5,0,28.9,18.8,28.9,36.8c0,20.5-10.5,37.6-29,37.6
				c-18.4,0-28.9-17.3-28.9-36.7C2733.5-310.3,2743.2-328.2,2762.5-328.2z"/>
			<path fill="#339AD6" d="M2818.7-336.2v53.3c0,28.1,14,38.7,32.5,38.7c19.6,0,34.2-11.4,34.2-39.2v-52.8h-11.8v53.6
				c0,20-8.6,28.9-22,28.9c-12.1,0-21.1-8.6-21.1-28.9v-53.6H2818.7z"/>
			<path fill="#339AD6" d="M2980-293.1c0-14.6-4.7-25.1-12.8-32.5c-7.9-7.4-19.9-11.3-36.7-11.3c-9.3,0-17.7,0.8-24.8,1.9v89
				c5.9,0.7,12.9,1.1,21.2,1.1c17.6,0,31.6-4.6,40-13C2975.4-266.3,2980-278.3,2980-293.1z M2929.2-254.3c-4.6,0-8.9-0.1-11.8-0.7
				v-71.4c3.1-0.7,7.7-1.2,13.7-1.2c24.7,0,36.8,13.6,36.7,34.9C2967.8-268.3,2954.2-254.3,2929.2-254.3z"/>
		</g>
	</g>
	<g display="inline">
		<g>
			<path fill="none" d="M2112.3-432.9c15.7,0,28.7-6.3,39.1-18.8c10.4-12.6,15.6-33.2,15.6-61.8c0-26.7-5.4-46.6-16.1-59.5
				c-10.7-13-24-19.4-39.9-19.4c-16.5,0-30.2,6.4-41.1,19.1c-10.9,12.7-16.3,31.6-16.3,56.5c0,28.7,5.7,49.8,17,63.5
				C2082.1-439.7,2096-432.9,2112.3-432.9z"/>
			<path fill="none" d="M2931.1-327.6c-6,0-10.6,0.5-13.7,1.2v71.4c3,0.5,7.2,0.7,11.8,0.7c25,0,38.5-14,38.5-38.4
				C2967.9-314.1,2955.8-327.6,2931.1-327.6z"/>
			<path fill="none" d="M2955.9-717c0.7-0.2,1.2-0.6,1.6-1.1c0.4-0.5,0.6-1.1,0.6-1.8c0-0.6-0.2-1.2-0.6-1.7
				c-0.4-0.5-0.9-0.9-1.6-1.1c-0.7-0.2-2.4-0.3-5-0.3h-1.9v6.3h1.9C2953.5-716.7,2955.2-716.8,2955.9-717z"/>
			<path fill="none" d="M2323.1-485.4c-8.8,6.2-13.2,14.2-13.2,23.8c0,9.4,3.5,17.6,10.6,24.5c7,6.9,16,10.3,26.9,10.3
				c12.2,0,23.8-4,34.8-12c8.2-6.1,13.5-13.5,16.1-22.3c1.8-5.8,2.6-16.7,2.6-32.9v-13.4c-8.6,2.9-22.3,6.3-41.1,10.3
				C2341.1-493.2,2328.9-489.3,2323.1-485.4z"/>
			<path fill="none" d="M2762.4-253.8c18.5,0,29-17.1,29-37.6c0-18-9.4-36.8-28.9-36.8c-19.3,0-29,17.9-29,37.7
				C2733.5-271.1,2744-253.8,2762.4-253.8z"/>
			<path fill="none" d="M1850.1-680.5c-14.7-29.8-42.7-45.3-79.9-43v262.2c23.8,0.7,45.3-4.2,62.7-21.1c14.5-14,22.5-31.7,27.2-50.9
				c7.6-30.8,7.6-62.1,4.4-93.4C1862.5-645.4,1858.5-663.5,1850.1-680.5z"/>
			<path fill="none" d="M1927.2-710.2H2127c34.1,0,61.9-27.8,61.9-61.9c0-23.4-12.9-44.5-33.8-55.2l-6.8-3.5v-9
				c0-41.6-33.8-75.4-75.4-75.4c-3.8,0-7.4,0.3-11,0.8l-7.5,1.1l-4.5-6.1c-16.7-22.8-43.6-36.4-71.8-36.4c-49.1,0-89,39.9-89,88.9
				v8.3l-7.7,3.2c-27,11.3-44.8,36.8-46.3,65.7c14.5,4.6,28.5,11.2,41.6,19.9C1900-754.2,1916.1-733.9,1927.2-710.2z"/>
			<path fill="none" d="M2945.4-700c2.8,1.6,5.7,2.3,8.7,2.3c3.1,0,6-0.8,8.7-2.3c2.8-1.6,4.9-3.7,6.5-6.5c1.6-2.8,2.3-5.7,2.3-8.7
				c0-3.1-0.8-6-2.4-8.8c-1.6-2.8-3.8-5-6.5-6.5c-2.8-1.5-5.6-2.3-8.6-2.3s-5.9,0.8-8.6,2.3c-2.8,1.5-4.9,3.7-6.5,6.5
				c-1.6,2.8-2.4,5.8-2.4,8.8c0,3.1,0.8,6,2.3,8.7C2940.5-703.7,2942.6-701.5,2945.4-700z M2944.2-726.7h4.7c4.4,0,6.9,0,7.4,0.1
				c1.6,0.1,2.8,0.4,3.6,0.9s1.6,1.2,2.2,2.2c0.6,1,0.9,2.1,0.9,3.3c0,1.7-0.5,3.1-1.6,4.3c-1.1,1.2-2.6,1.9-4.6,2.2
				c0.7,0.3,1.2,0.6,1.6,0.9s0.9,0.9,1.6,1.8c0.2,0.2,0.7,1.2,1.7,2.8l2.7,4.7h-5.8l-1.9-3.8c-1.3-2.5-2.4-4.1-3.2-4.8
				c-0.9-0.7-1.9-1-3.2-1h-1.2v9.5h-4.7V-726.7z"/>
			<path fill="#231F20" d="M1864.5-874.9c-30.4,15.6-50.6,45.5-53.9,79.4c8.4,1.4,16.6,3.4,24.6,6c1.5-28.9,19.3-54.5,46.3-65.7
				l7.7-3.2v-8.3c0-49,39.9-88.9,89-88.9c28.2,0,55.1,13.6,71.8,36.4l4.5,6.1l7.5-1.1c3.5-0.5,7.2-0.8,11-0.8
				c41.6,0,75.4,33.8,75.4,75.4v9l6.8,3.5c20.8,10.6,33.8,31.8,33.8,55.2c0,34.1-27.8,61.9-61.9,61.9h-199.8c3.7,8,6.9,16.3,9.6,25
				H2127c47.9,0,86.9-39,86.9-86.9c0-30.3-15.4-57.8-40.8-73.7c-3.1-52.6-46.9-94.4-100.3-94.4c-2.4,0-4.9,0.1-7.3,0.3
				c-21.5-25.7-53.7-40.8-87.4-40.8h-0.1C1918-980.7,1868.7-934,1864.5-874.9z"/>
			<path fill="#676767" d="M1987-640.1v351.9h67.5v-128.4c12.6,13.6,24.7,23.2,36.1,28.8c11.4,5.6,24.2,8.4,38.3,8.4
				c29.6,0,54.8-11.8,75.6-35.4c20.8-23.6,31.2-56.7,31.2-99.3c0-41.4-10.3-73.8-31-97c-20.6-23.2-45.8-34.8-75.4-34.8
				c-17,0-32.4,4-46.3,12c-13.9,8-25,18.4-33.1,31.2v-37.5H1987z M2070-573.4c10.9-12.7,24.6-19.1,41.1-19.1
				c15.8,0,29.1,6.5,39.9,19.4c10.7,13,16.1,32.8,16.1,59.5c0,28.7-5.2,49.3-15.6,61.8c-10.4,12.6-23.4,18.8-39.1,18.8
				c-16.3,0-30.2-6.8-41.5-20.5c-11.4-13.7-17-34.8-17-63.5C2053.7-541.9,2059.1-560.7,2070-573.4z"/>
			<path fill="#676767" d="M2335.3-534.9c-23.4,4.5-41.3,9.7-53.7,15.7c-12.4,6-22,14.6-28.9,25.9c-6.9,11.3-10.3,24.1-10.3,38.5
				c0,21.8,7.6,39.8,22.7,54c15.1,14.2,35.8,21.4,62.1,21.4c14.9,0,28.9-2.8,42-8.4c13.1-5.6,25.4-14,37-25.2
				c0.5,1.3,1.3,3.9,2.4,7.9c2.6,8.8,4.7,15.4,6.5,19.9h66.7c-5.9-12.2-10-23.6-12.1-34.2c-2.2-10.6-3.2-27.2-3.2-49.6l0.7-78.7
				c0-29.3-3-49.4-9-60.4c-6-11-16.4-20-31.1-27.1c-14.7-7.1-37.1-10.7-67.2-10.7c-33.1,0-58.1,5.9-74.9,17.8
				c-16.8,11.8-28.7,30.1-35.5,54.7l61.2,11c4.2-11.8,9.6-20.1,16.3-24.8c6.7-4.7,16.1-7.1,28.1-7.1c17.8,0,29.8,2.8,36.2,8.3
				c6.4,5.5,9.6,14.8,9.6,27.7v6.7C2388.7-546.3,2366.9-540.8,2335.3-534.9z M2400.9-494.1c0,16.2-0.9,27.1-2.6,32.9
				c-2.6,8.8-7.9,16.2-16.1,22.3c-11,8-22.6,12-34.8,12c-10.9,0-19.8-3.4-26.9-10.3c-7-6.9-10.6-15-10.6-24.5
				c0-9.6,4.4-17.5,13.2-23.8c5.8-3.8,18-7.8,36.7-11.8c18.7-4,32.4-7.4,41.1-10.3V-494.1z"/>
			<path fill="#676767" d="M2613.9-592.8c12.6,0,22.9,3.4,30.8,10.1c7.9,6.7,13,16.7,15.2,30l66.5-12c-8-27.4-21.2-47.7-39.5-61.1
				c-18.3-13.4-43-20-74.1-20c-37.9,0-68,11.7-90.3,35.2c-22.2,23.4-33.4,56.2-33.4,98.3c0,41.6,11.1,74.2,33.2,97.7
				c22.2,23.5,51.9,35.3,89.2,35.3c32.8,0,59-7.8,78.5-23.3c19.5-15.5,32.7-38.5,39.6-68.9l-66.3-11.3c-3.4,17.8-9.1,30.3-17.3,37.6
				c-8.2,7.3-18.6,10.9-31.4,10.9c-17.1,0-30.8-6.2-40.9-18.7c-10.2-12.5-15.2-33.9-15.2-64.1c0-27.2,5-46.6,15-58.2
				C2583.6-587,2597.1-592.8,2613.9-592.8z"/>
			<polygon fill="#676767" points="2975.2,-640.1 2892.1,-640.1 2813.1,-550.3 2813.1,-737 2745.7,-737 2745.7,-385.1 
				2813.1,-385.1 2813.1,-466.7 2844.6,-499.6 2908.7,-385.1 2981.4,-385.1 2888,-546.9 			"/>
			<path fill="#010101" d="M2943.2-696.3c3.4,1.9,7.1,2.9,10.9,2.9s7.4-1,10.9-2.9c3.4-1.9,6.1-4.6,8.1-8.1
				c1.9-3.4,2.9-7.1,2.9-10.9c0-3.8-1-7.5-2.9-11c-2-3.5-4.7-6.2-8.1-8c-3.4-1.9-7-2.8-10.8-2.8s-7.3,0.9-10.8,2.8
				c-3.4,1.9-6.1,4.6-8.1,8c-2,3.5-2.9,7.1-2.9,11c0,3.8,1,7.4,2.9,10.9C2937.1-700.9,2939.8-698.2,2943.2-696.3z M2939-724
				c1.6-2.8,3.8-5,6.5-6.5c2.8-1.5,5.6-2.3,8.6-2.3s5.9,0.8,8.6,2.3c2.8,1.5,4.9,3.7,6.5,6.5c1.6,2.8,2.4,5.8,2.4,8.8
				c0,3.1-0.8,6-2.3,8.7c-1.6,2.8-3.7,4.9-6.5,6.5c-2.8,1.6-5.7,2.3-8.7,2.3c-3,0-5.9-0.8-8.7-2.3c-2.8-1.6-4.9-3.7-6.5-6.5
				c-1.5-2.8-2.3-5.7-2.3-8.7C2936.6-718.3,2937.4-721.2,2939-724z"/>
			<path fill="#010101" d="M2948.9-713h1.2c1.3,0,2.4,0.3,3.2,1c0.9,0.7,1.9,2.2,3.2,4.8l1.9,3.8h5.8l-2.7-4.7
				c-1-1.7-1.5-2.6-1.7-2.8c-0.7-0.9-1.2-1.5-1.6-1.8s-0.9-0.6-1.6-0.9c2-0.3,3.5-1,4.6-2.2c1.1-1.2,1.6-2.6,1.6-4.3
				c0-1.2-0.3-2.3-0.9-3.3c-0.6-1-1.3-1.7-2.2-2.2s-2.1-0.8-3.6-0.9c-0.5,0-3-0.1-7.4-0.1h-4.7v23.2h4.7V-713z M2948.9-723h1.9
				c2.7,0,4.4,0.1,5,0.3c0.7,0.2,1.2,0.6,1.6,1.1c0.4,0.5,0.6,1.1,0.6,1.7c0,0.7-0.2,1.3-0.6,1.8c-0.4,0.5-0.9,0.9-1.6,1.1
				s-2.3,0.3-5.1,0.3h-1.9V-723z"/>
			<path fill="#231F20" d="M1876.8-769.7c-13.1-8.8-27.1-15.3-41.6-19.9c-8-2.6-16.3-4.5-24.6-6c-8-1.4-16.1-2.2-24.3-2.6
				c-32.3-1.6-64.7-0.8-97-1c-0.4,0-0.9,0.4-1.3,0.5v413.4c1.1,0.2,1.5,0.4,2,0.4c33.5-0.4,67-0.3,100.5-1.4
				c19.9-0.6,39.5-4.1,57.9-12.4c41.7-18.9,69.6-50.7,85.6-93.1c9.4-24.9,13.2-50.9,14.5-77.3c1.9-37.5,0.1-74.7-10.2-111
				c-0.5-1.7-1-3.4-1.5-5.1c-2.7-8.7-5.8-17-9.6-25C1916.1-733.9,1900-754.2,1876.8-769.7z M1860.1-533.3
				c-4.8,19.2-12.7,36.9-27.2,50.9c-17.5,16.9-39,21.8-62.7,21.1v-262.2c37.2-2.3,65.2,13.2,79.9,43c8.4,17,12.5,35.1,14.4,53.8
				C1867.6-595.4,1867.7-564.1,1860.1-533.3z"/>
			<path fill="#339AD6" d="M1400-396.3c0,6.1,5,11.1,11.1,11.1H1544v-413.6h-132.9c-6.1,0-11.1,5-11.1,11.1V-396.3z"/>
			<path fill="#339AD6" d="M1649.9-385.2c6.1,0,11.1-5,11.1-11.1v-391.5c0-6.1-5-11.1-11.1-11.1h-25.4v413.6H1649.9z"/>
			<rect x="1544" y="-798.9" fill="#231F20" width="80.5" height="413.6"/>
			<rect x="2187.5" y="-336.2" fill="#339AD6" width="11.7" height="90.5"/>
			<path fill="#339AD6" d="M2219.6-336.2v90.5h11v-38.7c0-15-0.3-25.9-0.9-37.3l0.4-0.1c4.6,9.8,10.6,20.1,16.9,30.2l28.7,45.9h11.8
				v-90.5h-11v37.9c0,14.1,0.3,25.1,1.3,37.2l-0.3,0.1c-4.3-9.3-9.5-18.8-16.2-29.4l-29-45.8H2219.6z"/>
			<polygon fill="#339AD6" points="2365.4,-245.7 2365.4,-326.3 2393,-326.3 2393,-336.2 2326,-336.2 2326,-326.3 2353.6,-326.3 
				2353.6,-245.7 			"/>
			<polygon fill="#339AD6" points="2470.4,-245.7 2470.4,-336.2 2458.5,-336.2 2458.5,-298.4 2414.8,-298.4 2414.8,-336.2 
				2403.1,-336.2 2403.1,-245.7 2414.8,-245.7 2414.8,-288.2 2458.5,-288.2 2458.5,-245.7 			"/>
			<polygon fill="#339AD6" points="2539.5,-326.4 2539.5,-336.2 2490.6,-336.2 2490.6,-245.7 2541.5,-245.7 2541.5,-255.5 
				2502.3,-255.5 2502.3,-288.2 2537.5,-288.2 2537.5,-297.8 2502.3,-297.8 2502.3,-326.4 			"/>
			<path fill="#339AD6" d="M2627.4-327.9c7.5,0,13.8,1.6,18.3,3.8l2.8-9.5c-3.1-1.6-10.2-4-21.5-4c-28.1,0-47.3,19.2-47.3,47.5
				c0,29.7,19.2,45.8,44.7,45.8c11,0,19.6-2.1,23.9-4.3l-2.4-9.3c-4.7,2.3-11.9,3.8-19.1,3.8c-22,0-34.8-14.2-34.8-36.4
				C2592.1-314.3,2606.2-327.9,2627.4-327.9z"/>
			<polygon fill="#339AD6" points="2663,-336.2 2663,-245.7 2713.4,-245.7 2713.4,-255.5 2674.7,-255.5 2674.7,-336.2 			"/>
			<path fill="#339AD6" d="M2761.7-244.2c23.1,0,42-16.5,42-47.7c0-26.9-16-45.8-40.7-45.8c-24.2,0-42,18.8-42,47.5
				C2721-262.8,2737.8-244.2,2761.7-244.2z M2762.5-328.2c19.5,0,28.9,18.8,28.9,36.8c0,20.5-10.5,37.6-29,37.6
				c-18.4,0-28.9-17.3-28.9-36.7C2733.5-310.3,2743.2-328.2,2762.5-328.2z"/>
			<path fill="#339AD6" d="M2818.7-336.2v53.3c0,28.1,14,38.7,32.5,38.7c19.6,0,34.2-11.4,34.2-39.2v-52.8h-11.8v53.6
				c0,20-8.6,28.9-22,28.9c-12.1,0-21.1-8.6-21.1-28.9v-53.6H2818.7z"/>
			<path fill="#339AD6" d="M2980-293.1c0-14.6-4.7-25.1-12.8-32.5c-7.9-7.4-19.9-11.3-36.7-11.3c-9.3,0-17.7,0.8-24.8,1.9v89
				c5.9,0.7,12.9,1.1,21.2,1.1c17.6,0,31.6-4.6,40-13C2975.4-266.3,2980-278.3,2980-293.1z M2929.2-254.3c-4.6,0-8.9-0.1-11.8-0.7
				v-71.4c3.1-0.7,7.7-1.2,13.7-1.2c24.7,0,36.8,13.6,36.7,34.9C2967.8-268.3,2954.2-254.3,2929.2-254.3z"/>
		</g>
	</g>
</g>
<g id="database">
	<rect x="76.8" y="371" fill="#6ACAD8" width="48.4" height="112.1"/>
	<rect x="197" y="371" fill="#6ACAD8" width="53.6" height="112.1"/>
	<rect x="317.2" y="371" fill="#6ACAD8" width="46.4" height="112.1"/>
	<path id="curve0_5_" fill="#0D3754" d="M76.8,365.1h71.3c6.6,0,11.9,5.3,11.9,11.9v17.8c0,6.5-5.3,11.9-11.9,11.9l0,0
		c6.6,0,11.9,5.3,11.9,11.9v17.8c0,6.5-5.3,11.9-11.9,11.9l0,0c6.6,0,11.9,5.3,11.9,11.9V478c0,6.5-5.3,11.9-11.9,11.9H76.8
		c-6.5,0-11.9-5.3-11.9-11.9v-17.8c0-6.5,5.3-11.9,11.9-11.9l0,0c-6.5,0-11.9-5.3-11.9-11.9v-17.8c0-6.5,5.3-11.9,11.9-11.9l0,0
		c-6.5,0-11.9-5.3-11.9-11.9V377C64.9,370.5,70.2,365.1,76.8,365.1z M79.2,460.2c-1.3,0-2.4,1.3-2.4,3V475c0,1.6,1.1,3,2.4,3h33.3
		v-17.8H79.2z M79.2,377c-1.3,0-2.4,1.3-2.4,3v11.9c0,1.6,1.1,3,2.4,3h33.3V377H79.2z M79.2,418.6c-1.3,0-2.4,1.3-2.4,3v11.9
		c0,1.6,1.1,3,2.4,3h33.3v-17.8H79.2z"/>
	<path id="curve0_4_" fill="#0D3754" d="M197,365.1h71.3c6.6,0,11.9,5.3,11.9,11.9v17.8c0,6.5-5.3,11.9-11.9,11.9l0,0
		c6.6,0,11.9,5.3,11.9,11.9v17.8c0,6.5-5.3,11.9-11.9,11.9l0,0c6.6,0,11.9,5.3,11.9,11.9V478c0,6.5-5.3,11.9-11.9,11.9H197
		c-6.5,0-11.9-5.3-11.9-11.9v-17.8c0-6.5,5.3-11.9,11.9-11.9l0,0c-6.5,0-11.9-5.3-11.9-11.9v-17.8c0-6.5,5.3-11.9,11.9-11.9l0,0
		c-6.5,0-11.9-5.3-11.9-11.9V377C185.1,370.5,190.4,365.1,197,365.1z M199.4,460.2c-1.3,0-2.4,1.3-2.4,3V475c0,1.6,1.1,3,2.4,3h33.3
		v-17.8H199.4z M199.4,377c-1.3,0-2.4,1.3-2.4,3v11.9c0,1.6,1.1,3,2.4,3h33.3V377H199.4z M199.4,418.6c-1.3,0-2.4,1.3-2.4,3v11.9
		c0,1.6,1.1,3,2.4,3h33.3v-17.8H199.4z"/>
	<path id="curve0_1_" fill="#0D3754" d="M317.2,365.1h71.3c6.6,0,11.9,5.3,11.9,11.9v17.8c0,6.5-5.3,11.9-11.9,11.9l0,0
		c6.6,0,11.9,5.3,11.9,11.9v17.8c0,6.5-5.3,11.9-11.9,11.9l0,0c6.6,0,11.9,5.3,11.9,11.9V478c0,6.5-5.3,11.9-11.9,11.9h-71.3
		c-6.5,0-11.9-5.3-11.9-11.9v-17.8c0-6.5,5.3-11.9,11.9-11.9l0,0c-6.5,0-11.9-5.3-11.9-11.9v-17.8c0-6.5,5.3-11.9,11.9-11.9l0,0
		c-6.5,0-11.9-5.3-11.9-11.9V377C305.3,370.5,310.6,365.1,317.2,365.1z M319.6,460.2c-1.3,0-2.4,1.3-2.4,3V475c0,1.6,1.1,3,2.4,3
		h33.3v-17.8H319.6z M319.6,377c-1.3,0-2.4,1.3-2.4,3v11.9c0,1.6,1.1,3,2.4,3h33.3V377H319.6z M319.6,418.6c-1.3,0-2.4,1.3-2.4,3
		v11.9c0,1.6,1.1,3,2.4,3h33.3v-17.8H319.6z"/>
	<rect x="682.3" y="371" fill="#6ACAD8" width="46.4" height="112.1"/>
	<path id="curve0_00000103257318562693475940000000620800246334113966_" fill="#0D3754" d="M682.3,365.1h71.3
		c6.6,0,11.9,5.3,11.9,11.9v17.8c0,6.5-5.3,11.9-11.9,11.9l0,0c6.6,0,11.9,5.3,11.9,11.9v17.8c0,6.5-5.3,11.9-11.9,11.9l0,0
		c6.6,0,11.9,5.3,11.9,11.9V478c0,6.5-5.3,11.9-11.9,11.9h-71.3c-6.5,0-11.9-5.3-11.9-11.9v-17.8c0-6.5,5.3-11.9,11.9-11.9l0,0
		c-6.5,0-11.9-5.3-11.9-11.9v-17.8c0-6.5,5.3-11.9,11.9-11.9l0,0c-6.5,0-11.9-5.3-11.9-11.9V377
		C670.5,370.5,675.8,365.1,682.3,365.1z M684.7,460.2c-1.3,0-2.4,1.3-2.4,3V475c0,1.6,1.1,3,2.4,3H718v-17.8H684.7z M684.7,377
		c-1.3,0-2.4,1.3-2.4,3v11.9c0,1.6,1.1,3,2.4,3H718V377H684.7z M684.7,418.6c-1.3,0-2.4,1.3-2.4,3v11.9c0,1.6,1.1,3,2.4,3H718v-17.8
		H684.7z"/>
</g>
<g id="shield">
	<g>
		<path fill="#6ACAD8" d="M435.6,206.1c6.2-0.1,11.9-1,18-2.1c3-0.5,5.9-1.1,8.9-1.5c0.4,0,0.5,0,0.9,0c3,0.4,5.9,0.9,8.9,1.5
			c6.1,1.1,11.7,2.1,18,2.1l2.9,0c0,9.6,0.2,19.4-0.8,29c-0.7,6.6-2.2,13.2-5.8,19.1c-5,8.2-13.3,13.6-22.2,18l-1.4,0.7l-1.4-0.7
			c-8.9-4.3-17.2-9.7-22.2-18c-3.6-5.9-5.1-12.5-5.8-19.1c-1.1-9.6-0.8-19.4-0.8-29L435.6,206.1z"/>
		<path id="curve1_00000177457371201184110410000004220509195985079717_" fill="#0D3754" d="M435.6,206.1c6.2-0.1,11.9-1,18-2.1
			c3-0.5,5.9-1.1,8.9-1.5c0.4,0,0.5,0,0.9,0c3,0.4,5.9,0.9,8.9,1.5c6.1,1.1,11.7,2.1,18,2.1l2.9,0c0,9.6,0.2,19.4-0.8,29
			c-0.7,6.6-2.2,13.2-5.8,19.1c-5,8.2-13.3,13.6-22.2,18l-1.4,0.7l-1.4-0.7c-8.9-4.3-17.2-9.7-22.2-18c-3.6-5.9-5.1-12.5-5.8-19.1
			c-1.1-9.6-0.8-19.4-0.8-29L435.6,206.1z M437.7,211.1c0,7.9,0,15.7,0.8,23.5c0.7,5.9,1.9,11.9,5.1,17c4.4,7.2,11.9,12,19.3,15.7
			c7.4-3.7,14.9-8.4,19.3-15.7c3.1-5.2,4.4-11.1,5.1-17c0.9-7.8,0.8-15.7,0.8-23.5c-5.7-0.2-11.2-1.1-16.8-2.2
			c-2.8-0.5-5.6-1-8.4-1.4c-2.8,0.4-5.6,0.9-8.4,1.4C448.8,210,443.3,210.9,437.7,211.1z"/>
		<path id="curve0_00000178918372649524691520000006029803366018783935_" fill="#0D3754" d="M442.7,215.8c0,6.1,0.1,12.2,0.8,18.3
			c0.6,5.2,1.6,10.5,4.4,15c3.4,5.6,9.2,9.6,15,12.6c5.8-3.1,11.6-7,15-12.6c2.7-4.5,3.8-9.8,4.4-15c0.7-6.1,0.8-12.2,0.8-18.3
			c-4.3-0.4-8.5-1.1-12.7-1.9c-2.5-0.5-5-0.9-7.5-1.3c-2.5,0.4-5,0.8-7.5,1.3C451.2,214.7,446.9,215.4,442.7,215.8z"/>
	</g>
</g>
<g id="DESC">
</g>
<g id="printer">
	<g>
		<rect x="2162.2" y="416.3" fill="#FFFFFF" width="52.8" height="37.4"/>
		<path id="curve1_6_" fill="#56ACB2" d="M2168.9,421.8h40.4v31.9h-5.9c-0.8-0.7-6-6.4-7-7.1c-2.1,1.3-4.6,2.1-7.3,2.1
			c-2.7,0-5.2-0.8-7.3-2.1c-1.1,0.7-6.3,6.4-7.1,7.1h-5.8V421.8z M2189.1,425.2c-5.6,0-10.1,4.5-10.1,10.1c0,5.6,4.5,10.1,10.1,10.1
			c5.6,0,10.1-4.5,10.1-10.1C2199.2,429.7,2194.7,425.2,2189.1,425.2z"/>
		<path id="curve0_9_" fill="#0D3754" d="M2158.8,411.7h60.6v43.8h-6.7v-37.1h-47.1v37.1h-6.7V411.7z"/>
		<rect x="2150" y="455.5" fill="#FFFFFF" width="77.3" height="39.1"/>
		<path id="curve2_5_" fill="#0D3754" d="M2155.4,452.1h67.3c7.4,0,13.5,6.1,13.5,13.5v20.2c0,7.4-6.1,13.5-13.5,13.5h-67.3
			c-7.4,0-13.5-6.1-13.5-13.5v-20.2C2142,458.1,2148,452.1,2155.4,452.1z M2158.8,458.8c-1.9,0-3.4,1.5-3.4,3.4s1.5,3.4,3.4,3.4h6.7
			c1.9,0,3.4-1.5,3.4-3.4s-1.5-3.4-3.4-3.4H2158.8z M2158.8,479c-1.9,0-3.4,1.5-3.4,3.4v6.7c0,1.9,1.5,3.4,3.4,3.4h60.6
			c1.9,0,3.4-1.5,3.4-3.4v-6.7c0-1.9-1.5-3.4-3.4-3.4H2158.8z"/>
	</g>
</g>
<g id="barcode">
	<g>
		<path id="curve3_00000138540240497246586120000016386971431488069519_" fill="#134F78" d="M2179.7,280.6c1.5,0.3,2.7,1.7,2.7,3.4
			v10.4c0,1.9-1.6,3.5-3.5,3.5h-4.4L2179.7,280.6z"/>
		<path id="curve2_00000175302960577351228160000011157480604337891484_" fill="#E81010" d="M2199.8,252.7h21.8
			c1.2-2.1,3.4-3.5,6-3.5c3.8,0,7,3.1,7,7c0,3.8-3.1,7-7,7c-2.6,0-4.8-1.4-6-3.5h-21.8V252.7z"/>
		<path id="curve1_00000016796180365923060890000001090725852760304027_" fill="#0D3754" d="M2150.5,279l-6.8,22.9
			c-1.7,5.5,1.5,11.3,7,13l3.9,1.2c5.5,1.6,11.3-1.5,13-7l9.4-31.6c1.3-4.5,5.3-7.4,10-7.4h5.9c1.9,0,3.5-1.6,3.5-3.5v-20.9
			c0-1.9-1.6-3.5-3.5-3.5h-38.3c-7.7,0-14.4,4.6-14.4,13.5v1c0,3.5,3,8,6.3,10.7C2150.2,270.1,2151.8,274.6,2150.5,279z"/>
		<path id="curve0_00000041991623962729564970000016968412828656764601_" fill="#252525" d="M2210.2,311.8h27.8v-7h-27.8V311.8z
			 M2210.2,238.8h27.8v-3.5h-27.8V238.8z M2210.2,242.2h27.8v7h-2.7c-1.9-2.1-4.7-3.5-7.8-3.5s-5.9,1.3-7.8,3.5h-9.6V242.2z
			 M2237.4,252.7h0.6v3.5c0,1.2-0.2,2.4-0.6,3.5h0.6v-3.5C2238,254.9,2237.8,253.8,2237.4,252.7z M2210.2,263.1h9.6
			c1.9,2.1,4.7,3.5,7.8,3.5s5.9-1.3,7.8-3.5h2.7v7h-27.8V263.1z M2210.2,273.5h27.8v3.5h-27.8V273.5z M2210.2,280.5h27.8v3.5h-27.8
			V280.5z M2210.2,287.4h27.8v7h-27.8V287.4z M2210.2,297.9h27.8v3.5h-27.8V297.9z"/>
	</g>
</g>
<g id="webcam">
	<g>
		<circle fill="#FFFFFF" cx="2189.1" cy="82" r="29"/>
		<path id="curve3_1_" fill="#0D3754" d="M2208.7,113.9c6.8,2.8,12.4,6.7,16.3,11.1c1.5,1.7,2,4.4,1.2,6.8s-2.6,3.7-4.5,3.3
			c-8.9-1.9-20.8-3.7-32.5-3.5c-11.8-0.2-23.6,1.6-32.5,3.5c-1.9,0.4-3.7-0.9-4.5-3.3s-0.3-5.1,1.2-6.8c3.9-4.3,9.4-8.3,16.1-11
			c5.7,3.5,12.4,5.6,19.6,5.6C2196.2,119.6,2203,117.5,2208.7,113.9z"/>
		<path id="curve2_1_" fill="#0D3754" d="M2189,48c18.9,0,34.2,15.3,34.2,34.2c0,18.9-15.3,34.2-34.2,34.2
			c-18.9,0-34.2-15.3-34.2-34.2C2154.8,63.3,2170.1,48,2189,48z M2189.1,57.1c-13.8,0-25,11.2-25,25s11.2,25,25,25
			c13.8,0,25-11.2,25-25S2202.9,57.1,2189.1,57.1z"/>
		<path id="curve1_1_" fill="#6ACAD8" d="M2189.1,60.3c12.1,0,21.8,9.8,21.8,21.8s-9.8,21.8-21.8,21.8c-12.1,0-21.8-9.8-21.8-21.8
			S2177,60.3,2189.1,60.3z M2189.1,66.5c-8.6,0-15.6,7-15.6,15.6s7,15.6,15.6,15.6c8.6,0,15.6-7,15.6-15.6S2197.7,66.5,2189.1,66.5z
			"/>
		<path id="curve0_6_" fill="#252525" d="M2189.1,69.6c6.9,0,12.5,5.6,12.5,12.5s-5.6,12.5-12.5,12.5c-6.9,0-12.5-5.6-12.5-12.5
			S2182.2,69.6,2189.1,69.6z M2184.4,72.7c-2.6,0-4.7,2.1-4.7,4.7c0,2.6,2.1,4.7,4.7,4.7c2.6,0,4.7-2.1,4.7-4.7
			C2189.1,74.8,2187,72.7,2184.4,72.7z"/>
	</g>
</g>
<g id="text">
	<g>
		<path fill="#FFFFFF" d="M137.9,521.3v24.5h-5.6v-24.5H137.9z"/>
		<path fill="#FFFFFF" d="M142.7,521.6c2-0.3,4.7-0.5,7.5-0.5c4.6,0,7.7,0.8,10,2.6c2.5,1.9,4.1,4.9,4.1,9.2c0,4.7-1.7,7.9-4.1,9.9
			c-2.6,2.1-6.5,3.2-11.3,3.2c-2.9,0-4.9-0.2-6.3-0.4V521.6z M148.3,541.6c0.5,0.1,1.2,0.1,1.9,0.1c5,0,8.3-2.7,8.3-8.6
			c0-5.1-2.9-7.8-7.7-7.8c-1.2,0-2,0.1-2.5,0.2V541.6z"/>
		<path fill="#FFFFFF" d="M185.9,545.1c-1,0.5-3.3,1.1-6.3,1.1c-8.5,0-12.8-5.3-12.8-12.2c0-8.3,6-13,13.4-13c2.9,0,5,0.6,6,1.1
			l-1.1,4.4c-1.1-0.5-2.7-0.9-4.6-0.9c-4.4,0-7.8,2.6-7.8,8.1c0,4.9,2.9,8,7.8,8c1.7,0,3.5-0.4,4.6-0.8L185.9,545.1z"/>
		<path fill="#FFFFFF" d="M197.1,540.1c1.5,0.8,3.8,1.5,6.1,1.5c2.5,0,3.9-1.1,3.9-2.6c0-1.5-1.2-2.4-4.1-3.4
			c-4.1-1.4-6.7-3.7-6.7-7.2c0-4.2,3.5-7.4,9.3-7.4c2.8,0,4.8,0.6,6.2,1.2l-1.2,4.5c-1-0.5-2.7-1.2-5.1-1.2s-3.6,1.1-3.6,2.4
			c0,1.6,1.4,2.2,4.5,3.4c4.3,1.6,6.4,3.8,6.4,7.3c0,4.1-3.2,7.6-9.9,7.6c-2.8,0-5.6-0.7-6.9-1.5L197.1,540.1z"/>
		<path fill="#FFFFFF" d="M231,535.4h-9v5.8h10.1v4.5h-15.6v-24.5h15.1v4.5H222v5.1h9V535.4z"/>
		<path fill="#FFFFFF" d="M235.9,521.6c1.8-0.3,4.4-0.5,7.4-0.5c3.6,0,6.2,0.5,7.9,1.9c1.5,1.2,2.2,2.9,2.2,5.1c0,3.1-2.2,5.3-4.3,6
			v0.1c1.7,0.7,2.6,2.3,3.3,4.6c0.8,2.8,1.5,6,2,6.9h-5.7c-0.4-0.7-1-2.7-1.7-5.7c-0.7-3-1.7-3.9-4-3.9h-1.7v9.6h-5.5V521.6z
			 M241.3,532.2h2.2c2.8,0,4.4-1.4,4.4-3.5c0-2.2-1.5-3.4-4.1-3.4c-1.3,0-2.1,0.1-2.5,0.2V532.2z"/>
		<path fill="#FFFFFF" d="M262.9,545.8l-7.8-24.5h6.1l3,10.3c0.8,2.9,1.6,5.7,2.2,8.7h0.1c0.6-2.9,1.4-5.8,2.2-8.6l3.1-10.5h5.9
			l-8.2,24.5H262.9z"/>
		<path fill="#FFFFFF" d="M294.8,535.4h-9v5.8h10.1v4.5h-15.6v-24.5h15.1v4.5h-9.5v5.1h9V535.4z"/>
		<path fill="#FFFFFF" d="M299.6,521.6c1.8-0.3,4.4-0.5,7.4-0.5c3.6,0,6.2,0.5,7.9,1.9c1.5,1.2,2.2,2.9,2.2,5.1c0,3.1-2.2,5.3-4.3,6
			v0.1c1.7,0.7,2.6,2.3,3.3,4.6c0.8,2.8,1.5,6,2,6.9h-5.7c-0.4-0.7-1-2.7-1.7-5.7c-0.7-3-1.7-3.9-4-3.9h-1.7v9.6h-5.5V521.6z
			 M305.1,532.2h2.2c2.8,0,4.4-1.4,4.4-3.5c0-2.2-1.5-3.4-4.1-3.4c-1.3,0-2.1,0.1-2.5,0.2V532.2z"/>
		<path fill="#FFFFFF" d="M321.3,540.1c1.5,0.8,3.8,1.5,6.1,1.5c2.5,0,3.9-1.1,3.9-2.6c0-1.5-1.2-2.4-4.1-3.4
			c-4.1-1.4-6.7-3.7-6.7-7.2c0-4.2,3.5-7.4,9.3-7.4c2.8,0,4.8,0.6,6.2,1.2l-1.2,4.5c-1-0.5-2.7-1.2-5.1-1.2s-3.6,1.1-3.6,2.4
			c0,1.6,1.4,2.2,4.5,3.4c4.3,1.6,6.4,3.8,6.4,7.3c0,4.1-3.2,7.6-9.9,7.6c-2.8,0-5.6-0.7-6.9-1.5L321.3,540.1z"/>
	</g>
	<g>
		<path fill="#FFFFFF" d="M614.1,545.8v-10l-7.7-14.4h6.3l2.5,5.9c0.8,1.8,1.3,3.1,1.9,4.7h0.1c0.5-1.5,1.1-2.9,1.9-4.7l2.5-5.9h6.2
			l-8.1,14.3v10.2H614.1z"/>
		<path fill="#FFFFFF" d="M651,533.3c0,8-4.9,12.9-12,12.9c-7.3,0-11.5-5.5-11.5-12.4c0-7.3,4.7-12.8,11.9-12.8
			C646.9,520.9,651,526.5,651,533.3z M633.3,533.6c0,4.8,2.2,8.2,6,8.2c3.7,0,5.9-3.6,5.9-8.3c0-4.4-2.1-8.2-5.9-8.2
			C635.5,525.3,633.3,528.9,633.3,533.6z"/>
		<path fill="#FFFFFF" d="M660.1,521.3v14.1c0,4.2,1.6,6.4,4.4,6.4c2.9,0,4.5-2,4.5-6.4v-14.1h5.5V535c0,7.5-3.8,11.1-10.2,11.1
			c-6.2,0-9.8-3.4-9.8-11.2v-13.6H660.1z"/>
		<path fill="#FFFFFF" d="M679.3,521.6c1.8-0.3,4.4-0.5,7.4-0.5c3.6,0,6.2,0.5,7.9,1.9c1.5,1.2,2.2,2.9,2.2,5.1c0,3.1-2.2,5.3-4.3,6
			v0.1c1.7,0.7,2.6,2.3,3.3,4.6c0.8,2.8,1.5,6,2,6.9h-5.7c-0.4-0.7-1-2.7-1.7-5.7c-0.7-3-1.7-3.9-4-3.9h-1.7v9.6h-5.5V521.6z
			 M684.8,532.2h2.2c2.8,0,4.4-1.4,4.4-3.5c0-2.2-1.5-3.4-4.1-3.4c-1.3,0-2.1,0.1-2.5,0.2V532.2z"/>
		<path fill="#FFFFFF" d="M708.4,540.1c1.5,0.8,3.8,1.5,6.1,1.5c2.5,0,3.9-1.1,3.9-2.6c0-1.5-1.2-2.4-4.1-3.4
			c-4.1-1.4-6.7-3.7-6.7-7.2c0-4.2,3.5-7.4,9.3-7.4c2.8,0,4.8,0.6,6.2,1.2l-1.2,4.5c-1-0.5-2.7-1.2-5.1-1.2s-3.6,1.1-3.6,2.4
			c0,1.6,1.4,2.2,4.5,3.4c4.3,1.6,6.3,3.8,6.3,7.3c0,4.1-3.2,7.6-9.9,7.6c-2.8,0-5.6-0.7-6.9-1.5L708.4,540.1z"/>
		<path fill="#FFFFFF" d="M742.3,535.4h-9v5.8h10.1v4.5h-15.6v-24.5h15.1v4.5h-9.5v5.1h9V535.4z"/>
		<path fill="#FFFFFF" d="M747.1,521.6c1.8-0.3,4.4-0.5,7.4-0.5c3.6,0,6.2,0.5,7.9,1.9c1.5,1.2,2.2,2.9,2.2,5.1c0,3.1-2.2,5.3-4.3,6
			v0.1c1.7,0.7,2.6,2.3,3.3,4.6c0.8,2.8,1.5,6,2,6.9h-5.7c-0.4-0.7-1-2.7-1.7-5.7c-0.7-3-1.7-3.9-4-3.9h-1.7v9.6h-5.5V521.6z
			 M752.6,532.2h2.2c2.8,0,4.4-1.4,4.4-3.5c0-2.2-1.5-3.4-4.1-3.4c-1.3,0-2.1,0.1-2.5,0.2V532.2z"/>
		<path fill="#FFFFFF" d="M774.2,545.8l-7.8-24.5h6.1l3,10.3c0.8,2.9,1.6,5.7,2.2,8.7h0.1c0.6-2.9,1.4-5.8,2.2-8.6l3.1-10.5h5.9
			l-8.2,24.5H774.2z"/>
		<path fill="#FFFFFF" d="M806.1,535.4h-9v5.8h10.1v4.5h-15.6v-24.5h15.1v4.5h-9.5v5.1h9V535.4z"/>
		<path fill="#FFFFFF" d="M810.9,521.6c1.8-0.3,4.4-0.5,7.4-0.5c3.6,0,6.2,0.5,7.9,1.9c1.5,1.2,2.2,2.9,2.2,5.1c0,3.1-2.2,5.3-4.3,6
			v0.1c1.7,0.7,2.6,2.3,3.3,4.6c0.8,2.8,1.5,6,2,6.9h-5.7c-0.4-0.7-1-2.7-1.7-5.7c-0.7-3-1.7-3.9-4-3.9h-1.7v9.6h-5.5V521.6z
			 M816.4,532.2h2.2c2.8,0,4.4-1.4,4.4-3.5c0-2.2-1.5-3.4-4.1-3.4c-1.3,0-2.1,0.1-2.5,0.2V532.2z"/>
	</g>
	<g>
		<path fill="#FFFFFF" d="M1178.4,545.8l-5.8-24.5h5.9l1.9,10.1c0.5,2.9,1.1,6.1,1.5,8.5h0.1c0.4-2.6,1-5.6,1.6-8.6l2.1-10h5.9
			l2,10.3c0.5,2.9,0.9,5.5,1.3,8.2h0.1c0.4-2.7,0.9-5.6,1.4-8.5l2-10h5.6l-6.3,24.5h-6l-2.1-10.5c-0.5-2.5-0.9-4.8-1.2-7.5h-0.1
			c-0.4,2.8-0.8,5.1-1.4,7.5l-2.3,10.5H1178.4z"/>
		<path fill="#FFFFFF" d="M1221.2,535.4h-9v5.8h10.1v4.5h-15.6v-24.5h15.1v4.5h-9.5v5.1h9V535.4z"/>
		<path fill="#FFFFFF" d="M1226,521.6c1.5-0.3,4.4-0.5,7.1-0.5c3.4,0,5.4,0.3,7.2,1.4c1.7,0.9,2.9,2.6,2.9,4.8c0,2.2-1.3,4.2-4,5.2
			v0.1c2.8,0.8,4.9,2.9,4.9,6c0,2.2-1,4-2.5,5.2c-1.8,1.4-4.8,2.2-9.6,2.2c-2.7,0-4.8-0.2-6-0.4V521.6z M1231.5,531h1.8
			c2.9,0,4.5-1.2,4.5-3c0-1.9-1.4-2.8-3.9-2.8c-1.2,0-1.9,0.1-2.4,0.1V531z M1231.5,541.9c0.5,0.1,1.2,0.1,2.1,0.1
			c2.5,0,4.7-0.9,4.7-3.5c0-2.5-2.2-3.4-5-3.4h-1.9V541.9z"/>
		<path fill="#FFFFFF" d="M1255.3,521.6c1.5-0.3,4.4-0.5,7.1-0.5c3.4,0,5.4,0.3,7.2,1.4c1.7,0.9,2.9,2.6,2.9,4.8
			c0,2.2-1.3,4.2-4,5.2v0.1c2.8,0.8,4.9,2.9,4.9,6c0,2.2-1,4-2.5,5.2c-1.8,1.4-4.8,2.2-9.6,2.2c-2.7,0-4.8-0.2-6-0.4V521.6z
			 M1260.7,531h1.8c2.9,0,4.5-1.2,4.5-3c0-1.9-1.4-2.8-3.9-2.8c-1.2,0-1.9,0.1-2.4,0.1V531z M1260.7,541.9c0.5,0.1,1.2,0.1,2.1,0.1
			c2.5,0,4.7-0.9,4.7-3.5c0-2.5-2.2-3.4-5-3.4h-1.9V541.9z"/>
		<path fill="#FFFFFF" d="M1277.2,521.6c1.8-0.3,4.4-0.5,7.4-0.5c3.6,0,6.2,0.5,7.9,1.9c1.5,1.2,2.2,2.9,2.2,5.1
			c0,3.1-2.2,5.3-4.3,6v0.1c1.7,0.7,2.6,2.3,3.3,4.6c0.8,2.8,1.5,6,2,6.9h-5.7c-0.4-0.7-1-2.7-1.7-5.7c-0.7-3-1.7-3.9-4-3.9h-1.7
			v9.6h-5.5V521.6z M1282.7,532.2h2.2c2.8,0,4.4-1.4,4.4-3.5c0-2.2-1.5-3.4-4.1-3.4c-1.3,0-2.1,0.1-2.5,0.2V532.2z"/>
		<path fill="#FFFFFF" d="M1320.9,533.3c0,8-4.9,12.9-12,12.9c-7.3,0-11.5-5.5-11.5-12.4c0-7.3,4.7-12.8,11.9-12.8
			C1316.8,520.9,1320.9,526.5,1320.9,533.3z M1303.3,533.6c0,4.8,2.2,8.2,6,8.2c3.7,0,5.9-3.6,5.9-8.3c0-4.4-2.1-8.2-5.9-8.2
			C1305.4,525.3,1303.3,528.9,1303.3,533.6z"/>
		<path fill="#FFFFFF" d="M1328.3,545.8l-5.8-24.5h5.9l1.9,10.1c0.5,2.9,1.1,6.1,1.5,8.5h0.1c0.4-2.6,1-5.6,1.6-8.6l2.1-10h5.9
			l2,10.3c0.5,2.9,0.9,5.5,1.3,8.2h0.1c0.4-2.7,0.9-5.6,1.4-8.5l2-10h5.6l-6.3,24.5h-6l-2.1-10.5c-0.5-2.5-0.9-4.8-1.2-7.5h-0.1
			c-0.4,2.8-0.8,5.1-1.4,7.5l-2.3,10.5H1328.3z"/>
		<path fill="#FFFFFF" d="M1356.4,540.1c1.5,0.8,3.8,1.5,6.1,1.5c2.5,0,3.9-1.1,3.9-2.6c0-1.5-1.2-2.4-4.1-3.4
			c-4.1-1.4-6.7-3.7-6.7-7.2c0-4.2,3.5-7.4,9.3-7.4c2.8,0,4.8,0.6,6.2,1.2l-1.2,4.5c-1-0.5-2.7-1.2-5.1-1.2s-3.6,1.1-3.6,2.4
			c0,1.6,1.4,2.2,4.5,3.4c4.3,1.6,6.3,3.8,6.3,7.3c0,4.1-3.2,7.6-9.9,7.6c-2.8,0-5.6-0.7-6.9-1.5L1356.4,540.1z"/>
		<path fill="#FFFFFF" d="M1390.4,535.4h-9v5.8h10.1v4.5h-15.6v-24.5h15.1v4.5h-9.5v5.1h9V535.4z"/>
		<path fill="#FFFFFF" d="M1395.2,521.6c1.8-0.3,4.4-0.5,7.4-0.5c3.6,0,6.2,0.5,7.9,1.9c1.5,1.2,2.2,2.9,2.2,5.1
			c0,3.1-2.2,5.3-4.3,6v0.1c1.7,0.7,2.6,2.3,3.3,4.6c0.8,2.8,1.5,6,2,6.9h-5.7c-0.4-0.7-1-2.7-1.7-5.7c-0.7-3-1.7-3.9-4-3.9h-1.7
			v9.6h-5.5V521.6z M1400.7,532.2h2.2c2.8,0,4.4-1.4,4.4-3.5c0-2.2-1.5-3.4-4.1-3.4c-1.3,0-2.1,0.1-2.5,0.2V532.2z"/>
		<path fill="#FFFFFF" d="M1441.4,536.7c0,6.5-4.6,9.5-9.4,9.5c-5.2,0-9.2-3.4-9.2-9.1c0-5.7,3.8-9.4,9.5-9.4
			C1437.8,527.6,1441.4,531.4,1441.4,536.7z M1428.5,536.9c0,3,1.3,5.3,3.6,5.3c2.1,0,3.5-2.1,3.5-5.3c0-2.6-1-5.3-3.5-5.3
			C1429.5,531.5,1428.5,534.3,1428.5,536.9z"/>
		<path fill="#FFFFFF" d="M1444.8,533.9c0-2.6-0.1-4.3-0.1-5.8h4.8l0.2,3.3h0.1c0.9-2.6,3.1-3.7,4.8-3.7c0.5,0,0.8,0,1.2,0.1v5.2
			c-0.4-0.1-0.9-0.1-1.5-0.1c-2,0-3.4,1.1-3.8,2.8c-0.1,0.4-0.1,0.8-0.1,1.2v9h-5.5V533.9z"/>
		<path fill="#FFFFFF" d="M1466.3,540.1c1.5,0.8,3.8,1.5,6.1,1.5c2.5,0,3.9-1.1,3.9-2.6c0-1.5-1.2-2.4-4.1-3.4
			c-4.1-1.4-6.7-3.7-6.7-7.2c0-4.2,3.5-7.4,9.3-7.4c2.8,0,4.8,0.6,6.2,1.2l-1.2,4.5c-1-0.5-2.7-1.2-5.1-1.2s-3.6,1.1-3.6,2.4
			c0,1.6,1.4,2.2,4.5,3.4c4.3,1.6,6.4,3.8,6.4,7.3c0,4.1-3.2,7.6-9.9,7.6c-2.8,0-5.6-0.7-6.9-1.5L1466.3,540.1z"/>
		<path fill="#FFFFFF" d="M1508.1,533.3c0,8-4.9,12.9-12,12.9c-7.3,0-11.5-5.5-11.5-12.4c0-7.3,4.7-12.8,11.9-12.8
			C1504,520.9,1508.1,526.5,1508.1,533.3z M1490.4,533.6c0,4.8,2.2,8.2,6,8.2c3.7,0,5.9-3.6,5.9-8.3c0-4.4-2.1-8.2-5.9-8.2
			C1492.6,525.3,1490.4,528.9,1490.4,533.6z"/>
		<path fill="#FFFFFF" d="M1511.7,521.3h14.9v4.5h-9.4v5.6h8.8v4.5h-8.8v9.8h-5.6V521.3z"/>
		<path fill="#FFFFFF" d="M1535.5,526h-6.6v-4.6h18.8v4.6h-6.7v19.8h-5.6V526z"/>
		<path fill="#FFFFFF" d="M1555.7,545.8l-5.8-24.5h5.9l1.9,10.1c0.5,2.9,1.1,6.1,1.5,8.5h0.1c0.4-2.6,1-5.6,1.6-8.6l2.1-10h5.9
			l2,10.3c0.5,2.9,0.9,5.5,1.3,8.2h0.1c0.4-2.7,0.9-5.6,1.4-8.5l2-10h5.6l-6.3,24.5h-6l-2.1-10.5c-0.5-2.5-0.9-4.8-1.2-7.5h-0.1
			c-0.4,2.8-0.8,5.1-1.4,7.5l-2.3,10.5H1555.7z"/>
		<path fill="#FFFFFF" d="M1587.7,539.5l-1.7,6.3h-5.7l7.5-24.5h7.3l7.6,24.5h-6l-1.9-6.3H1587.7z M1593.9,535.4l-1.5-5.2
			c-0.4-1.5-0.9-3.3-1.2-4.7h-0.1c-0.4,1.5-0.7,3.3-1.1,4.7l-1.5,5.2H1593.9z"/>
		<path fill="#FFFFFF" d="M1605.8,521.6c1.8-0.3,4.4-0.5,7.4-0.5c3.6,0,6.2,0.5,7.9,1.9c1.5,1.2,2.2,2.9,2.2,5.1
			c0,3.1-2.2,5.3-4.3,6v0.1c1.7,0.7,2.6,2.3,3.3,4.6c0.8,2.8,1.5,6,2,6.9h-5.7c-0.4-0.7-1-2.7-1.7-5.7c-0.7-3-1.7-3.9-4-3.9h-1.7
			v9.6h-5.5V521.6z M1611.2,532.2h2.2c2.8,0,4.4-1.4,4.4-3.5c0-2.2-1.5-3.4-4.1-3.4c-1.3,0-2.1,0.1-2.5,0.2V532.2z"/>
		<path fill="#FFFFFF" d="M1641.8,535.4h-9v5.8h10.1v4.5h-15.6v-24.5h15.1v4.5h-9.5v5.1h9V535.4z"/>
	</g>
	<g>
		<path fill="#FFFFFF" d="M2090.2,545.1c-1,0.5-3.3,1.1-6.3,1.1c-8.5,0-12.8-5.3-12.8-12.2c0-8.3,6-13,13.4-13c2.9,0,5,0.6,6,1.1
			l-1.1,4.4c-1.1-0.5-2.7-0.9-4.6-0.9c-4.4,0-7.8,2.6-7.8,8.1c0,4.9,2.9,8,7.8,8c1.7,0,3.5-0.4,4.6-0.8L2090.2,545.1z"/>
		<path fill="#FFFFFF" d="M2099.9,539.5l-1.7,6.3h-5.7l7.5-24.5h7.3l7.6,24.5h-6l-1.9-6.3H2099.9z M2106.1,535.4l-1.5-5.2
			c-0.4-1.5-0.9-3.3-1.2-4.7h-0.1c-0.4,1.5-0.7,3.3-1.1,4.7l-1.5,5.2H2106.1z"/>
		<path fill="#FFFFFF" d="M2118,521.6c1.8-0.3,4.4-0.5,7.4-0.5c3.6,0,6.2,0.5,7.9,1.9c1.5,1.2,2.2,2.9,2.2,5.1c0,3.1-2.2,5.3-4.3,6
			v0.1c1.7,0.7,2.6,2.3,3.3,4.6c0.8,2.8,1.5,6,2,6.9h-5.7c-0.4-0.7-1-2.7-1.7-5.7c-0.7-3-1.7-3.9-4-3.9h-1.7v9.6h-5.5V521.6z
			 M2123.4,532.2h2.2c2.8,0,4.4-1.4,4.4-3.5c0-2.2-1.5-3.4-4.1-3.4c-1.3,0-2.1,0.1-2.5,0.2V532.2z"/>
		<path fill="#FFFFFF" d="M2139.5,521.6c2-0.3,4.7-0.5,7.5-0.5c4.6,0,7.7,0.8,10,2.6c2.5,1.9,4.1,4.9,4.1,9.2c0,4.7-1.7,7.9-4.1,9.9
			c-2.6,2.1-6.5,3.2-11.3,3.2c-2.9,0-4.9-0.2-6.3-0.4V521.6z M2145,541.6c0.5,0.1,1.2,0.1,1.9,0.1c5,0,8.3-2.7,8.3-8.6
			c0-5.1-2.9-7.8-7.7-7.8c-1.2,0-2,0.1-2.5,0.2V541.6z"/>
		<path fill="#FFFFFF" d="M2172.1,521.6c1.7-0.3,4.1-0.5,7.5-0.5c3.4,0,5.8,0.7,7.5,2c1.6,1.2,2.6,3.3,2.6,5.7
			c0,2.4-0.8,4.4-2.2,5.8c-1.9,1.8-4.7,2.6-7.9,2.6c-0.7,0-1.4,0-1.9-0.1v8.7h-5.5V521.6z M2177.5,532.7c0.5,0.1,1.1,0.1,1.9,0.1
			c2.9,0,4.8-1.5,4.8-4c0-2.2-1.6-3.6-4.3-3.6c-1.1,0-1.9,0.1-2.3,0.2V532.7z"/>
		<path fill="#FFFFFF" d="M2193.1,521.6c1.8-0.3,4.4-0.5,7.4-0.5c3.6,0,6.2,0.5,7.9,1.9c1.5,1.2,2.2,2.9,2.2,5.1
			c0,3.1-2.2,5.3-4.3,6v0.1c1.7,0.7,2.6,2.3,3.3,4.6c0.8,2.8,1.5,6,2,6.9h-5.7c-0.4-0.7-1-2.7-1.7-5.7c-0.7-3-1.7-3.9-4-3.9h-1.7
			v9.6h-5.5V521.6z M2198.6,532.2h2.2c2.8,0,4.4-1.4,4.4-3.5c0-2.2-1.5-3.4-4.1-3.4c-1.3,0-2.1,0.1-2.5,0.2V532.2z"/>
		<path fill="#FFFFFF" d="M2220.2,521.3v24.5h-5.6v-24.5H2220.2z"/>
		<path fill="#FFFFFF" d="M2225,545.8v-24.5h6.5l5.1,9c1.5,2.6,2.9,5.6,4,8.4h0.1c-0.4-3.2-0.5-6.5-0.5-10.2v-7.1h5.1v24.5h-5.8
			l-5.2-9.4c-1.5-2.6-3-5.8-4.2-8.6l-0.1,0c0.1,3.2,0.2,6.7,0.2,10.7v7.4H2225z"/>
		<path fill="#FFFFFF" d="M2254.7,526h-6.6v-4.6h18.8v4.6h-6.7v19.8h-5.6V526z"/>
		<path fill="#FFFFFF" d="M2284.4,535.4h-9v5.8h10.1v4.5h-15.6v-24.5h15.1v4.5h-9.5v5.1h9V535.4z"/>
		<path fill="#FFFFFF" d="M2289.3,521.6c1.8-0.3,4.4-0.5,7.4-0.5c3.6,0,6.2,0.5,7.9,1.9c1.5,1.2,2.2,2.9,2.2,5.1
			c0,3.1-2.2,5.3-4.3,6v0.1c1.7,0.7,2.6,2.3,3.3,4.6c0.8,2.8,1.5,6,2,6.9h-5.7c-0.4-0.7-1-2.7-1.7-5.7c-0.7-3-1.7-3.9-4-3.9h-1.7
			v9.6h-5.5V521.6z M2294.7,532.2h2.2c2.8,0,4.4-1.4,4.4-3.5c0-2.2-1.5-3.4-4.1-3.4c-1.3,0-2.1,0.1-2.5,0.2V532.2z"/>
	</g>
	<g>
		<path fill="#FFFFFF" d="M2043.4,340.4c1.5-0.3,4.4-0.5,7.1-0.5c3.4,0,5.4,0.3,7.2,1.4c1.7,0.9,2.9,2.6,2.9,4.8
			c0,2.2-1.3,4.2-4,5.2v0.1c2.8,0.8,4.9,2.9,4.9,6c0,2.2-1,4-2.5,5.2c-1.8,1.4-4.8,2.2-9.6,2.2c-2.7,0-4.8-0.2-6-0.4V340.4z
			 M2048.9,349.8h1.8c2.9,0,4.5-1.2,4.5-3c0-1.9-1.4-2.8-3.9-2.8c-1.2,0-1.9,0.1-2.4,0.1V349.8z M2048.9,360.6
			c0.5,0.1,1.2,0.1,2.1,0.1c2.5,0,4.7-0.9,4.7-3.5c0-2.5-2.2-3.4-5-3.4h-1.9V360.6z"/>
		<path fill="#FFFFFF" d="M2070.9,358.3l-1.7,6.3h-5.7l7.5-24.5h7.3l7.6,24.5h-6l-1.9-6.3H2070.9z M2077.1,354.1l-1.5-5.2
			c-0.4-1.5-0.9-3.3-1.2-4.7h-0.1c-0.4,1.5-0.7,3.3-1.1,4.7l-1.5,5.2H2077.1z"/>
		<path fill="#FFFFFF" d="M2089,340.4c1.8-0.3,4.4-0.5,7.4-0.5c3.6,0,6.2,0.5,7.9,1.9c1.5,1.2,2.2,2.9,2.2,5.1c0,3.1-2.2,5.3-4.3,6
			v0.1c1.7,0.7,2.6,2.3,3.3,4.6c0.8,2.8,1.5,6,2,6.9h-5.7c-0.4-0.7-1-2.7-1.7-5.7c-0.7-3-1.7-3.9-4-3.9h-1.7v9.6h-5.5V340.4z
			 M2094.4,350.9h2.2c2.8,0,4.4-1.4,4.4-3.5c0-2.2-1.5-3.4-4.1-3.4c-1.3,0-2.1,0.1-2.5,0.2V350.9z"/>
		<path fill="#FFFFFF" d="M2128.3,363.9c-1,0.5-3.3,1.1-6.3,1.1c-8.5,0-12.8-5.3-12.8-12.2c0-8.3,6-13,13.4-13c2.9,0,5,0.6,6,1.1
			l-1.1,4.4c-1.1-0.5-2.7-0.9-4.6-0.9c-4.4,0-7.8,2.6-7.8,8.1c0,4.9,2.9,8,7.8,8c1.7,0,3.5-0.4,4.6-0.8L2128.3,363.9z"/>
		<path fill="#FFFFFF" d="M2153.2,352.1c0,8-4.9,12.9-12,12.9c-7.3,0-11.5-5.5-11.5-12.4c0-7.3,4.7-12.8,11.9-12.8
			C2149.1,339.7,2153.2,345.3,2153.2,352.1z M2135.5,352.4c0,4.8,2.2,8.2,6,8.2c3.7,0,5.9-3.6,5.9-8.3c0-4.4-2.1-8.2-5.9-8.2
			C2137.7,344.1,2135.5,347.6,2135.5,352.4z"/>
		<path fill="#FFFFFF" d="M2156.8,340.4c2-0.3,4.7-0.5,7.5-0.5c4.6,0,7.7,0.8,10,2.6c2.5,1.9,4.1,4.9,4.1,9.2c0,4.7-1.7,7.9-4.1,9.9
			c-2.6,2.1-6.5,3.2-11.3,3.2c-2.9,0-4.9-0.2-6.3-0.4V340.4z M2162.4,360.4c0.5,0.1,1.2,0.1,1.9,0.1c5,0,8.3-2.7,8.3-8.6
			c0-5.1-2.9-7.8-7.7-7.8c-1.2,0-2,0.1-2.5,0.2V360.4z"/>
		<path fill="#FFFFFF" d="M2196.6,354.2h-9v5.8h10.1v4.5h-15.6v-24.5h15.1v4.5h-9.5v5.1h9V354.2z"/>
		<path fill="#FFFFFF" d="M2208.8,340.4c1.8-0.3,4.4-0.5,7.4-0.5c3.6,0,6.2,0.5,7.9,1.9c1.5,1.2,2.2,2.9,2.2,5.1
			c0,3.1-2.2,5.3-4.3,6v0.1c1.7,0.7,2.6,2.3,3.3,4.6c0.8,2.8,1.5,6,2,6.9h-5.7c-0.4-0.7-1-2.7-1.7-5.7c-0.7-3-1.7-3.9-4-3.9h-1.7
			v9.6h-5.5V340.4z M2214.3,350.9h2.2c2.8,0,4.4-1.4,4.4-3.5c0-2.2-1.5-3.4-4.1-3.4c-1.3,0-2.1,0.1-2.5,0.2V350.9z"/>
		<path fill="#FFFFFF" d="M2244.8,354.2h-9v5.8h10.1v4.5h-15.6v-24.5h15.1v4.5h-9.5v5.1h9V354.2z"/>
		<path fill="#FFFFFF" d="M2255.4,358.3l-1.7,6.3h-5.7l7.5-24.5h7.3l7.6,24.5h-6l-1.9-6.3H2255.4z M2261.6,354.1l-1.5-5.2
			c-0.4-1.5-0.9-3.3-1.2-4.7h-0.1c-0.4,1.5-0.7,3.3-1.1,4.7l-1.5,5.2H2261.6z"/>
		<path fill="#FFFFFF" d="M2273.5,340.4c2-0.3,4.7-0.5,7.5-0.5c4.6,0,7.7,0.8,10,2.6c2.5,1.9,4.1,4.9,4.1,9.2c0,4.7-1.7,7.9-4.1,9.9
			c-2.6,2.1-6.5,3.2-11.3,3.2c-2.9,0-4.9-0.2-6.3-0.4V340.4z M2279,360.4c0.5,0.1,1.2,0.1,1.9,0.1c5,0,8.3-2.7,8.3-8.6
			c0-5.1-2.9-7.8-7.7-7.8c-1.2,0-2,0.1-2.5,0.2V360.4z"/>
		<path fill="#FFFFFF" d="M2313.3,354.2h-9v5.8h10.1v4.5h-15.6v-24.5h15.1v4.5h-9.5v5.1h9V354.2z"/>
		<path fill="#FFFFFF" d="M2318.1,340.4c1.8-0.3,4.4-0.5,7.4-0.5c3.6,0,6.2,0.5,7.9,1.9c1.5,1.2,2.2,2.9,2.2,5.1
			c0,3.1-2.2,5.3-4.3,6v0.1c1.7,0.7,2.6,2.3,3.3,4.6c0.8,2.8,1.5,6,2,6.9h-5.7c-0.4-0.7-1-2.7-1.7-5.7c-0.7-3-1.7-3.9-4-3.9h-1.7
			v9.6h-5.5V340.4z M2323.6,350.9h2.2c2.8,0,4.4-1.4,4.4-3.5c0-2.2-1.5-3.4-4.1-3.4c-1.3,0-2.1,0.1-2.5,0.2V350.9z"/>
	</g>
	<g>
		<path fill="#FFFFFF" d="M2084.3,173l-5.8-24.5h5.9l1.9,10.1c0.5,2.9,1.1,6.1,1.5,8.5h0.1c0.4-2.6,1-5.6,1.6-8.6l2.1-10h5.9l2,10.3
			c0.5,2.9,0.9,5.5,1.3,8.2h0.1c0.4-2.7,0.9-5.6,1.4-8.5l2-10h5.6l-6.3,24.5h-6l-2.1-10.5c-0.5-2.5-0.9-4.8-1.2-7.5h-0.1
			c-0.4,2.8-0.8,5.1-1.4,7.5l-2.3,10.5H2084.3z"/>
		<path fill="#FFFFFF" d="M2127.1,162.6h-9v5.8h10.1v4.5h-15.6v-24.5h15.1v4.5h-9.5v5.1h9V162.6z"/>
		<path fill="#FFFFFF" d="M2131.9,148.8c1.5-0.3,4.4-0.5,7.1-0.5c3.4,0,5.4,0.3,7.2,1.4c1.7,0.9,2.9,2.6,2.9,4.8
			c0,2.2-1.3,4.2-4,5.2v0.1c2.8,0.8,4.9,2.9,4.9,6c0,2.2-1,4-2.5,5.2c-1.8,1.4-4.8,2.2-9.6,2.2c-2.7,0-4.8-0.2-6-0.4V148.8z
			 M2137.4,158.2h1.8c2.9,0,4.5-1.2,4.5-3c0-1.9-1.4-2.8-3.9-2.8c-1.2,0-1.9,0.1-2.4,0.1V158.2z M2137.4,169.1
			c0.5,0.1,1.2,0.1,2.1,0.1c2.5,0,4.7-0.9,4.7-3.5c0-2.5-2.2-3.4-5-3.4h-1.9V169.1z"/>
		<path fill="#FFFFFF" d="M2179.1,172.3c-1,0.5-3.3,1.1-6.3,1.1c-8.5,0-12.8-5.3-12.8-12.2c0-8.3,6-13,13.4-13c2.9,0,5,0.6,6,1.1
			l-1.1,4.4c-1.1-0.5-2.7-0.9-4.6-0.9c-4.4,0-7.8,2.6-7.8,8.1c0,4.9,2.9,8,7.8,8c1.7,0,3.5-0.4,4.6-0.8L2179.1,172.3z"/>
		<path fill="#FFFFFF" d="M2188.8,166.7l-1.7,6.3h-5.7l7.5-24.5h7.3l7.6,24.5h-6l-1.9-6.3H2188.8z M2195,162.6l-1.5-5.2
			c-0.4-1.5-0.9-3.3-1.2-4.7h-0.1c-0.4,1.5-0.7,3.3-1.1,4.7l-1.5,5.2H2195z"/>
		<path fill="#FFFFFF" d="M2227.6,163.6c-0.1-2.9-0.2-6.5-0.2-10.1h-0.1c-0.8,3.1-1.8,6.6-2.7,9.5l-3,9.5h-4.3l-2.6-9.5
			c-0.8-2.9-1.6-6.4-2.2-9.5h-0.1c-0.1,3.3-0.3,7.1-0.4,10.1l-0.4,9.3h-5.1l1.6-24.5h7.4l2.4,8.2c0.8,2.8,1.5,5.9,2.1,8.7h0.1
			c0.7-2.8,1.5-6.1,2.3-8.8l2.6-8.1h7.2l1.3,24.5h-5.4L2227.6,163.6z"/>
		<path fill="#FFFFFF" d="M2252.2,162.6h-9v5.8h10.1v4.5h-15.6v-24.5h15.1v4.5h-9.5v5.1h9V162.6z"/>
		<path fill="#FFFFFF" d="M2257,148.8c1.8-0.3,4.4-0.5,7.4-0.5c3.6,0,6.2,0.5,7.9,1.9c1.5,1.2,2.2,2.9,2.2,5.1c0,3.1-2.2,5.3-4.3,6
			v0.1c1.7,0.7,2.6,2.3,3.3,4.6c0.8,2.8,1.5,6,2,6.9h-5.7c-0.4-0.7-1-2.7-1.7-5.7c-0.7-3-1.7-3.9-4-3.9h-1.7v9.6h-5.5V148.8z
			 M2262.5,159.4h2.2c2.8,0,4.4-1.4,4.4-3.5c0-2.2-1.5-3.4-4.1-3.4c-1.3,0-2.1,0.1-2.5,0.2V159.4z"/>
		<path fill="#FFFFFF" d="M2284.5,166.7l-1.7,6.3h-5.7l7.5-24.5h7.3l7.6,24.5h-6l-1.9-6.3H2284.5z M2290.7,162.6l-1.5-5.2
			c-0.4-1.5-0.9-3.3-1.2-4.7h-0.1c-0.4,1.5-0.7,3.3-1.1,4.7l-1.5,5.2H2290.7z"/>
	</g>
	<g>
		<path fill="#FFFFFF" d="M173.4,117.9c1.9,1.2,4.6,2.1,7.5,2.1c4.3,0,6.8-2.3,6.8-5.5c0-3-1.7-4.8-6.1-6.4
			c-5.3-1.9-8.5-4.6-8.5-9.2c0-5,4.2-8.8,10.5-8.8c3.3,0,5.7,0.8,7.2,1.6l-1.2,3.4c-1.1-0.6-3.2-1.5-6.1-1.5c-4.4,0-6.1,2.6-6.1,4.8
			c0,3,2,4.5,6.4,6.2c5.5,2.1,8.3,4.8,8.3,9.5c0,5-3.7,9.3-11.3,9.3c-3.1,0-6.5-0.9-8.3-2.1L173.4,117.9z"/>
		<path fill="#FFFFFF" d="M200.2,112.1c0.1,5.7,3.7,8.1,8,8.1c3,0,4.8-0.5,6.4-1.2l0.7,3c-1.5,0.7-4,1.4-7.7,1.4
			c-7.2,0-11.4-4.7-11.4-11.7s4.1-12.5,10.9-12.5c7.6,0,9.6,6.7,9.6,10.9c0,0.9-0.1,1.5-0.1,2H200.2z M212.6,109.1
			c0-2.7-1.1-6.9-5.9-6.9c-4.3,0-6.1,3.9-6.5,6.9H212.6z"/>
		<path fill="#FFFFFF" d="M238.4,122.1c-1.1,0.6-3.6,1.3-6.7,1.3c-7,0-11.6-4.8-11.6-11.9c0-7.2,4.9-12.3,12.5-12.3
			c2.5,0,4.7,0.6,5.9,1.2l-1,3.3c-1-0.6-2.6-1.1-4.9-1.1c-5.3,0-8.2,3.9-8.2,8.8c0,5.4,3.5,8.7,8.1,8.7c2.4,0,4-0.6,5.2-1.2
			L238.4,122.1z"/>
		<path fill="#FFFFFF" d="M262.8,116.6c0,2.4,0,4.5,0.2,6.3h-3.7l-0.2-3.8h-0.1c-1.1,1.9-3.6,4.3-7.7,4.3c-3.6,0-8-2-8-10.2V99.7
			h4.2v12.9c0,4.4,1.3,7.4,5.2,7.4c2.8,0,4.8-2,5.6-3.8c0.2-0.6,0.4-1.4,0.4-2.2V99.7h4.2V116.6z"/>
		<path fill="#FFFFFF" d="M269.8,107c0-2.7,0-5.1-0.2-7.2h3.7l0.1,4.6h0.2c1.1-3.1,3.6-5.1,6.4-5.1c0.5,0,0.8,0,1.2,0.1v4
			c-0.4-0.1-0.9-0.1-1.4-0.1c-3,0-5.1,2.3-5.7,5.4c-0.1,0.6-0.2,1.2-0.2,2V123h-4.2V107z"/>
		<path fill="#FFFFFF" d="M287.4,112.1c0.1,5.7,3.7,8.1,8,8.1c3,0,4.8-0.5,6.4-1.2l0.7,3c-1.5,0.7-4,1.4-7.7,1.4
			c-7.2,0-11.4-4.7-11.4-11.7s4.1-12.5,10.9-12.5c7.6,0,9.6,6.7,9.6,10.9c0,0.9-0.1,1.5-0.1,2H287.4z M299.8,109.1
			c0-2.7-1.1-6.9-5.9-6.9c-4.3,0-6.1,3.9-6.5,6.9H299.8z"/>
		<path fill="#FFFFFF" d="M323.6,90.6V123h-4.2V90.6H323.6z"/>
		<path fill="#FFFFFF" d="M330.9,123V90.6h4.6l10.4,16.4c2.4,3.8,4.3,7.2,5.8,10.5l0.1,0c-0.4-4.3-0.5-8.3-0.5-13.3V90.6h3.9V123
			h-4.2l-10.3-16.4c-2.3-3.6-4.4-7.3-6-10.8l-0.1,0c0.2,4.1,0.3,8,0.3,13.3V123H330.9z"/>
		<path fill="#FFFFFF" d="M368.6,94.2h-9.8v-3.6h24v3.6h-9.9V123h-4.2V94.2z"/>
		<path fill="#FFFFFF" d="M403.1,107.8h-12.6v11.7h14v3.5h-18.2V90.6h17.5v3.5h-13.3v10.2h12.6V107.8z"/>
		<path fill="#FFFFFF" d="M409.9,91c2.1-0.4,5.1-0.7,8-0.7c4.5,0,7.3,0.8,9.4,2.6c1.6,1.4,2.5,3.6,2.5,6.1c0,4.3-2.7,7.1-6.1,8.3
			v0.1c2.5,0.9,4,3.2,4.8,6.5c1.1,4.5,1.8,7.6,2.5,8.9h-4.3c-0.5-0.9-1.2-3.7-2.2-7.7c-1-4.5-2.7-6.1-6.5-6.3h-3.9v14h-4.2V91z
			 M414.1,105.8h4.3c4.5,0,7.3-2.4,7.3-6.1c0-4.2-3-6-7.4-6c-2,0-3.5,0.2-4.1,0.4V105.8z"/>
		<path fill="#FFFFFF" d="M435.8,123V90.6h4.6l10.4,16.4c2.4,3.8,4.3,7.2,5.8,10.5l0.1,0c-0.4-4.3-0.5-8.3-0.5-13.3V90.6h3.9V123
			h-4.2l-10.3-16.4c-2.3-3.6-4.4-7.3-6-10.8l-0.1,0c0.2,4.1,0.3,8,0.3,13.3V123H435.8z"/>
		<path fill="#FFFFFF" d="M484.1,107.8h-12.6v11.7h14v3.5h-18.2V90.6h17.5v3.5h-13.3v10.2h12.6V107.8z"/>
		<path fill="#FFFFFF" d="M497.9,94.2H488v-3.6h24v3.6h-9.9V123h-4.2V94.2z"/>
		<path fill="#FFFFFF" d="M548.4,121.9c-1.5,0.8-4.6,1.5-8.5,1.5c-9.1,0-16-5.8-16-16.4c0-10.1,6.9-17,16.9-17c4,0,6.6,0.9,7.7,1.4
			l-1,3.4c-1.6-0.8-3.8-1.3-6.5-1.3c-7.6,0-12.6,4.8-12.6,13.3c0,7.9,4.6,13,12.4,13c2.5,0,5.1-0.5,6.8-1.3L548.4,121.9z"/>
		<path fill="#FFFFFF" d="M573.9,111.1c0,8.6-6,12.3-11.6,12.3c-6.3,0-11.1-4.6-11.1-12c0-7.8,5.1-12.3,11.5-12.3
			C569.4,99.2,573.9,104,573.9,111.1z M555.5,111.4c0,5.1,2.9,8.9,7.1,8.9c4,0,7.1-3.8,7.1-9c0-3.9-2-8.9-7-8.9
			C557.7,102.4,555.5,107,555.5,111.4z"/>
		<path fill="#FFFFFF" d="M579.3,106c0-2.4,0-4.4-0.2-6.3h3.7l0.2,3.8h0.1c1.2-2.2,3.8-4.4,7.7-4.4c3.2,0,8.2,1.9,8.2,9.9V123h-4.2
			v-13.4c0-3.7-1.4-6.9-5.4-6.9c-2.8,0-4.9,2-5.7,4.3c-0.2,0.5-0.3,1.2-0.3,2v14h-4.2V106z"/>
		<path fill="#FFFFFF" d="M605.9,106c0-2.4,0-4.4-0.2-6.3h3.7l0.2,3.8h0.1c1.2-2.2,3.8-4.4,7.7-4.4c3.2,0,8.2,1.9,8.2,9.9V123h-4.2
			v-13.4c0-3.7-1.4-6.9-5.4-6.9c-2.8,0-4.9,2-5.7,4.3c-0.2,0.5-0.3,1.2-0.3,2v14h-4.2V106z"/>
		<path fill="#FFFFFF" d="M634.9,112.1c0.1,5.7,3.7,8.1,8,8.1c3,0,4.8-0.5,6.4-1.2l0.7,3c-1.5,0.7-4,1.4-7.7,1.4
			c-7.2,0-11.4-4.7-11.4-11.7s4.1-12.5,10.9-12.5c7.6,0,9.6,6.7,9.6,10.9c0,0.9-0.1,1.5-0.1,2H634.9z M647.3,109.1
			c0-2.7-1.1-6.9-5.9-6.9c-4.3,0-6.1,3.9-6.5,6.9H647.3z"/>
		<path fill="#FFFFFF" d="M673.2,122.1c-1.1,0.6-3.6,1.3-6.7,1.3c-7,0-11.6-4.8-11.6-11.9c0-7.2,4.9-12.3,12.5-12.3
			c2.5,0,4.7,0.6,5.9,1.2l-1,3.3c-1-0.6-2.6-1.1-4.9-1.1c-5.3,0-8.2,3.9-8.2,8.8c0,5.4,3.5,8.7,8.1,8.7c2.4,0,4-0.6,5.2-1.2
			L673.2,122.1z"/>
		<path fill="#FFFFFF" d="M683.8,93v6.7h6v3.2h-6v12.5c0,2.9,0.8,4.5,3.2,4.5c1.1,0,1.9-0.1,2.4-0.3l0.2,3.2
			c-0.8,0.3-2.1,0.6-3.7,0.6c-2,0-3.6-0.6-4.6-1.8c-1.2-1.2-1.6-3.3-1.6-6v-12.7h-3.6v-3.2h3.6v-5.6L683.8,93z"/>
		<path fill="#FFFFFF" d="M699.3,93.2c0,1.4-1,2.6-2.7,2.6c-1.5,0-2.5-1.2-2.5-2.6c0-1.5,1.1-2.6,2.6-2.6
			C698.3,90.6,699.3,91.7,699.3,93.2z M694.6,123V99.7h4.2V123H694.6z"/>
		<path fill="#FFFFFF" d="M726.9,111.1c0,8.6-6,12.3-11.6,12.3c-6.3,0-11.1-4.6-11.1-12c0-7.8,5.1-12.3,11.5-12.3
			C722.4,99.2,726.9,104,726.9,111.1z M708.4,111.4c0,5.1,2.9,8.9,7.1,8.9c4,0,7.1-3.8,7.1-9c0-3.9-2-8.9-7-8.9
			C710.6,102.4,708.4,107,708.4,111.4z"/>
		<path fill="#FFFFFF" d="M732.2,106c0-2.4,0-4.4-0.2-6.3h3.7l0.2,3.8h0.1c1.2-2.2,3.8-4.4,7.7-4.4c3.2,0,8.2,1.9,8.2,9.9V123h-4.2
			v-13.4c0-3.7-1.4-6.9-5.4-6.9c-2.8,0-4.9,2-5.7,4.3c-0.2,0.5-0.3,1.2-0.3,2v14h-4.2V106z"/>
		<path fill="#FFFFFF" d="M355,157.3l4.6,13.1c0.8,2.1,1.4,4,1.9,6h0.1c0.5-1.9,1.2-3.8,2-6l4.5-13.1h4.4l-9.1,23.2h-4l-8.8-23.2
			H355z"/>
		<path fill="#FFFFFF" d="M381.1,150.8c0,1.4-1,2.6-2.7,2.6c-1.5,0-2.5-1.2-2.5-2.6c0-1.5,1.1-2.6,2.6-2.6
			C380.1,148.2,381.1,149.3,381.1,150.8z M376.4,180.6v-23.2h4.2v23.2H376.4z"/>
		<path fill="#FFFFFF" d="M400.5,180.6l-0.3-2.9H400c-1.3,1.8-3.8,3.5-7.1,3.5c-4.7,0-7.1-3.3-7.1-6.7c0-5.6,5-8.7,14-8.6v-0.5
			c0-1.9-0.5-5.4-5.3-5.4c-2.2,0-4.4,0.7-6,1.7l-1-2.8c1.9-1.2,4.7-2.1,7.6-2.1c7.1,0,8.8,4.8,8.8,9.5v8.7c0,2,0.1,4,0.4,5.6H400.5z
			 M399.9,168.7c-4.6-0.1-9.8,0.7-9.8,5.2c0,2.7,1.8,4,4,4c3,0,4.9-1.9,5.6-3.9c0.1-0.4,0.2-0.9,0.2-1.3V168.7z"/>
		<path fill="#FFFFFF" d="M428,148.2v32.4h-7.3v-32.4H428z"/>
		<path fill="#FFFFFF" d="M434.3,148.6c2.7-0.4,6.2-0.7,9.9-0.7c6.1,0,10.1,1.1,13.2,3.5c3.4,2.5,5.5,6.5,5.5,12.2
			c0,6.2-2.3,10.5-5.4,13.1c-3.4,2.8-8.6,4.2-14.9,4.2c-3.8,0-6.5-0.2-8.3-0.5V148.6z M441.7,175c0.6,0.1,1.6,0.1,2.5,0.1
			c6.6,0,10.9-3.6,10.9-11.3c0-6.7-3.9-10.3-10.2-10.3c-1.6,0-2.7,0.1-3.3,0.3V175z"/>
		<path fill="#FFFFFF" d="M491.5,179.6c-1.3,0.7-4.4,1.4-8.3,1.4c-11.2,0-16.9-7-16.9-16.2c0-11,7.9-17.2,17.7-17.2
			c3.8,0,6.7,0.8,8,1.4l-1.5,5.8c-1.5-0.6-3.6-1.2-6.1-1.2c-5.8,0-10.3,3.5-10.3,10.7c0,6.5,3.8,10.6,10.4,10.6
			c2.2,0,4.7-0.5,6.1-1.1L491.5,179.6z"/>
		<path fill="#FFFFFF" d="M513.5,172.2l-2.3,8.3h-7.6l9.9-32.4h9.6l10,32.4h-7.9l-2.5-8.3H513.5z M521.7,166.8l-2-6.9
			c-0.6-1.9-1.2-4.3-1.6-6.2H518c-0.5,1.9-1,4.4-1.5,6.2l-1.9,6.9H521.7z"/>
		<path fill="#FFFFFF" d="M537.5,148.6c2.3-0.4,5.4-0.7,9.9-0.7c4.5,0,7.7,0.9,9.9,2.6c2.1,1.6,3.5,4.3,3.5,7.5c0,3.2-1.1,5.9-3,7.7
			c-2.5,2.4-6.2,3.4-10.5,3.4c-1,0-1.8,0-2.5-0.1v11.6h-7.2V148.6z M544.7,163.3c0.6,0.1,1.4,0.2,2.4,0.2c3.9,0,6.3-2,6.3-5.3
			c0-3-2.1-4.8-5.7-4.8c-1.5,0-2.5,0.1-3,0.3V163.3z"/>
		<path fill="#FFFFFF" d="M572.7,148.2v32.4h-7.3v-32.4H572.7z"/>
	</g>
	<g>
		<path fill="none" d="M1143.1,88.8h43.2c7.4,0,13.4-6,13.4-13.4c0-5.1-2.8-9.6-7.3-11.9l-1.5-0.8v-1.9c0-9-7.3-16.3-16.3-16.3
			c-0.8,0-1.6,0.1-2.4,0.2l-1.6,0.2l-1-1.3c-3.6-4.9-9.4-7.9-15.5-7.9c-10.6,0-19.2,8.6-19.2,19.2v1.8l-1.7,0.7
			c-5.8,2.4-9.7,8-10,14.2c3.1,1,6.1,2.4,9,4.3C1137.3,79.3,1140.7,83.7,1143.1,88.8z"/>
		<path fill="none" d="M1228.6,137.4c-1.9,1.3-2.9,3.1-2.9,5.1c0,2,0.8,3.8,2.3,5.3c1.5,1.5,3.5,2.2,5.8,2.2c2.6,0,5.1-0.9,7.5-2.6
			c1.8-1.3,2.9-2.9,3.5-4.8c0.4-1.2,0.6-3.6,0.6-7.1v-2.9c-1.9,0.6-4.8,1.4-8.9,2.2C1232.5,135.7,1229.8,136.5,1228.6,137.4z"/>
		<path fill="none" d="M1182.9,114.2c-3.6,0-6.5,1.4-8.9,4.1c-2.4,2.8-3.5,6.8-3.5,12.2c0,6.2,1.2,10.8,3.7,13.7
			c2.5,3,5.4,4.4,9,4.4c3.4,0,6.2-1.4,8.5-4.1c2.2-2.7,3.4-7.2,3.4-13.4c0-5.8-1.2-10.1-3.5-12.9
			C1189.2,115.6,1186.3,114.2,1182.9,114.2z"/>
		<path fill="none" d="M1323.6,187.4c4,0,6.3-3.7,6.3-8.1c0-3.9-2-8-6.2-8c-4.2,0-6.3,3.9-6.3,8.2
			C1317.4,183.7,1319.7,187.4,1323.6,187.4z"/>
		<path fill="none" d="M1126.5,95.2c-3.2-6.4-9.2-9.8-17.3-9.3v56.7c5.1,0.2,9.8-0.9,13.6-4.6c3.1-3,4.9-6.8,5.9-11
			c1.6-6.7,1.6-13.4,0.9-20.2C1129.2,102.8,1128.3,98.9,1126.5,95.2z"/>
		<path fill="none" d="M1360.1,171.5c-1.3,0-2.3,0.1-3,0.3v15.4c0.6,0.1,1.6,0.1,2.6,0.1c5.4,0,8.3-3,8.3-8.3
			C1368.1,174.4,1365.4,171.5,1360.1,171.5z"/>
		<path d="M1196.3,59.5c-0.7-11.4-10.1-20.4-21.7-20.4c-0.5,0-1.1,0-1.6,0.1c-4.7-5.6-11.6-8.8-18.9-8.8c-13,0-23.7,10.1-24.6,22.9
			c-6.6,3.4-10.9,9.8-11.6,17.2c1.8,0.3,3.6,0.7,5.3,1.3c0.3-6.3,4.2-11.8,10-14.2l1.7-0.7v-1.8c0-10.6,8.6-19.2,19.2-19.2
			c6.1,0,11.9,2.9,15.5,7.9l1,1.3l1.6-0.2c0.8-0.1,1.6-0.2,2.4-0.2c9,0,16.3,7.3,16.3,16.3v1.9l1.5,0.8c4.5,2.3,7.3,6.9,7.3,11.9
			c0,7.4-6,13.4-13.4,13.4h-43.2c0.8,1.7,1.5,3.5,2.1,5.4h41.1c10.4,0,18.8-8.4,18.8-18.8C1205.1,68.9,1201.8,62.9,1196.3,59.5z"/>
		<path fill="#FFFFFF" d="M1186.8,102.7c-3.7,0-7,0.9-10,2.6c-3,1.7-5.4,4-7.2,6.7v-8.1h-13.6V180h14.6v-27.8c2.7,2.9,5.3,5,7.8,6.2
			c2.5,1.2,5.2,1.8,8.3,1.8c6.4,0,11.8-2.5,16.3-7.7c4.5-5.1,6.7-12.3,6.7-21.5c0-9-2.2-15.9-6.7-21
			C1198.7,105.2,1193.2,102.7,1186.8,102.7z M1191.6,144.6c-2.2,2.7-5.1,4.1-8.5,4.1c-3.5,0-6.5-1.5-9-4.4c-2.5-3-3.7-7.5-3.7-13.7
			c0-5.4,1.2-9.5,3.5-12.2c2.4-2.7,5.3-4.1,8.9-4.1c3.4,0,6.3,1.4,8.6,4.2c2.3,2.8,3.5,7.1,3.5,12.9
			C1195,137.5,1193.9,141.9,1191.6,144.6z"/>
		<path fill="#FFFFFF" d="M1231.3,126.7c-5.1,1-8.9,2.1-11.6,3.4c-2.7,1.3-4.8,3.2-6.3,5.6c-1.5,2.4-2.2,5.2-2.2,8.3
			c0,4.7,1.6,8.6,4.9,11.7s7.7,4.6,13.4,4.6c3.2,0,6.2-0.6,9.1-1.8c2.8-1.2,5.5-3,8-5.4c0.1,0.3,0.3,0.8,0.5,1.7
			c0.6,1.9,1,3.3,1.4,4.3h14.4c-1.3-2.6-2.2-5.1-2.6-7.4c-0.5-2.3-0.7-5.9-0.7-10.7l0.2-17c0-6.3-0.6-10.7-1.9-13
			c-1.3-2.4-3.5-4.3-6.7-5.9c-3.2-1.5-8-2.3-14.5-2.3c-7.2,0-12.6,1.3-16.2,3.8c-3.6,2.6-6.2,6.5-7.7,11.8l13.2,2.4
			c0.9-2.6,2.1-4.3,3.5-5.4c1.5-1,3.5-1.5,6.1-1.5c3.8,0,6.5,0.6,7.8,1.8c1.4,1.2,2.1,3.2,2.1,6v1.5
			C1242.8,124.2,1238.1,125.4,1231.3,126.7z M1245.4,135.5c0,3.5-0.2,5.9-0.6,7.1c-0.6,1.9-1.7,3.5-3.5,4.8
			c-2.4,1.7-4.9,2.6-7.5,2.6c-2.4,0-4.3-0.7-5.8-2.2c-1.5-1.5-2.3-3.3-2.3-5.3c0-2.1,1-3.8,2.9-5.1c1.2-0.8,3.9-1.7,7.9-2.5
			c4-0.9,7-1.6,8.9-2.2V135.5z"/>
		<path fill="#FFFFFF" d="M1291.4,114.2c2.7,0,5,0.7,6.7,2.2c1.7,1.5,2.8,3.6,3.3,6.5l14.4-2.6c-1.7-5.9-4.6-10.3-8.5-13.2
			c-4-2.9-9.3-4.3-16-4.3c-8.2,0-14.7,2.5-19.5,7.6c-4.8,5.1-7.2,12.1-7.2,21.2c0,9,2.4,16,7.2,21.1c4.8,5.1,11.2,7.6,19.3,7.6
			c7.1,0,12.7-1.7,17-5c4.2-3.4,7.1-8.3,8.6-14.9l-14.3-2.4c-0.7,3.8-2,6.5-3.7,8.1c-1.8,1.6-4,2.4-6.8,2.4c-3.7,0-6.6-1.3-8.8-4
			c-2.2-2.7-3.3-7.3-3.3-13.9c0-5.9,1.1-10.1,3.2-12.6C1284.9,115.4,1287.8,114.2,1291.4,114.2z"/>
		<polygon fill="#FFFFFF" points="1369.5,103.9 1351.6,103.9 1334.5,123.3 1334.5,83 1319.9,83 1319.9,159 1334.5,159 1334.5,141.4 
			1341.3,134.3 1355.2,159 1370.9,159 1350.7,124.1 		"/>
		<path d="M1132.3,75.9c-2.8-1.9-5.9-3.3-9-4.3c-1.7-0.6-3.5-1-5.3-1.3c-1.7-0.3-3.5-0.5-5.3-0.6c-7-0.3-14-0.2-21-0.2
			c-0.1,0-0.2,0.1-0.3,0.1V159c0.2,0,0.3,0.1,0.4,0.1c7.2-0.1,14.5-0.1,21.7-0.3c4.3-0.1,8.5-0.9,12.5-2.7c9-4.1,15-10.9,18.5-20.1
			c2-5.4,2.8-11,3.1-16.7c0.4-8.1,0-16.1-2.2-24c-0.1-0.4-0.2-0.7-0.3-1.1c-0.6-1.9-1.3-3.7-2.1-5.4
			C1140.7,83.7,1137.3,79.3,1132.3,75.9z M1128.7,127c-1,4.2-2.7,8-5.9,11c-3.8,3.6-8.4,4.7-13.6,4.6V85.9c8-0.5,14.1,2.8,17.3,9.3
			c1.8,3.7,2.7,7.6,3.1,11.6C1130.3,113.6,1130.3,120.4,1128.7,127z"/>
		<rect x="1199.4" y="169.6" fill="#FFFFFF" width="2.5" height="19.6"/>
		<path fill="#FFFFFF" d="M1206.3,169.6v19.6h2.4v-8.4c0-3.2-0.1-5.6-0.2-8.1l0.1,0c1,2.1,2.3,4.4,3.7,6.5l6.2,9.9h2.6v-19.6h-2.4
			v8.2c0,3,0.1,5.4,0.3,8l-0.1,0c-0.9-2-2.1-4.1-3.5-6.4l-6.3-9.9H1206.3z"/>
		<polygon fill="#FFFFFF" points="1237.8,189.2 1237.8,171.8 1243.8,171.8 1243.8,169.6 1229.3,169.6 1229.3,171.8 1235.3,171.8 
			1235.3,189.2 		"/>
		<polygon fill="#FFFFFF" points="1260.5,189.2 1260.5,169.6 1258,169.6 1258,177.8 1248.5,177.8 1248.5,169.6 1246,169.6 
			1246,189.2 1248.5,189.2 1248.5,180 1258,180 1258,189.2 		"/>
		<polygon fill="#FFFFFF" points="1275.5,171.7 1275.5,169.6 1264.9,169.6 1264.9,189.2 1275.9,189.2 1275.9,187 1267.4,187 
			1267.4,180 1275,180 1275,177.9 1267.4,177.9 1267.4,171.7 		"/>
		<path fill="#FFFFFF" d="M1294.5,171.4c1.6,0,3,0.3,3.9,0.8l0.6-2.1c-0.7-0.3-2.2-0.9-4.6-0.9c-6.1,0-10.2,4.1-10.2,10.3
			c0,6.4,4.1,9.9,9.7,9.9c2.4,0,4.2-0.5,5.2-0.9l-0.5-2c-1,0.5-2.6,0.8-4.1,0.8c-4.8,0-7.5-3.1-7.5-7.9
			C1286.8,174.3,1289.9,171.4,1294.5,171.4z"/>
		<polygon fill="#FFFFFF" points="1302.2,169.6 1302.2,189.2 1313,189.2 1313,187 1304.7,187 1304.7,169.6 		"/>
		<path fill="#FFFFFF" d="M1323.5,189.5c5,0,9.1-3.6,9.1-10.3c0-5.8-3.5-9.9-8.8-9.9c-5.2,0-9.1,4.1-9.1,10.3
			C1314.7,185.5,1318.3,189.5,1323.5,189.5z M1323.7,171.3c4.2,0,6.2,4.1,6.2,8c0,4.4-2.3,8.1-6.3,8.1c-4,0-6.2-3.7-6.2-7.9
			C1317.4,175.2,1319.5,171.3,1323.7,171.3z"/>
		<path fill="#FFFFFF" d="M1350.2,181v-11.4h-2.6v11.6c0,4.3-1.9,6.2-4.8,6.2c-2.6,0-4.6-1.9-4.6-6.2v-11.6h-2.6v11.5
			c0,6.1,3,8.4,7,8.4C1347.1,189.5,1350.2,187,1350.2,181z"/>
		<path fill="#FFFFFF" d="M1370.7,178.9c0-3.2-1-5.4-2.8-7c-1.7-1.6-4.3-2.4-7.9-2.4c-2,0-3.8,0.2-5.4,0.4v19.2
			c1.3,0.1,2.8,0.2,4.6,0.2c3.8,0,6.8-1,8.6-2.8C1369.7,184.7,1370.7,182.1,1370.7,178.9z M1359.7,187.3c-1,0-1.9,0-2.6-0.1v-15.4
			c0.7-0.1,1.7-0.3,3-0.3c5.3,0,7.9,2.9,7.9,7.5C1368,184.3,1365.1,187.3,1359.7,187.3z"/>
		<path fill="#FFFFFF" d="M1031.5,69.6c-1.3,0-2.4,1.1-2.4,2.4v84.7c0,1.3,1.1,2.4,2.4,2.4h35.6V69.6l0,0v0H1031.5z"/>
		<path fill="#FFFFFF" d="M1085.6,156.7V71.9c0-1.3-1.1-2.4-2.4-2.4h-2.8v89.5h2.8C1084.5,159.1,1085.6,158,1085.6,156.7z"/>
		<polygon points="1067.1,159.1 1067.1,159.1 1080.4,159.1 1080.4,69.6 1067.1,69.6 1067.1,69.6 		"/>
	</g>
</g>
<g id="parenthese">
	<polyline fill="none" stroke="#134F78" stroke-width="5" stroke-miterlimit="10" points="1035.6,359.3 1035.6,327.8 1780.7,327.8 
		1780.7,528.5 1761.4,528.5 	"/>
	<g>
	</g>
	<g>
	</g>
	<g>
	</g>
	<g>
	</g>
	<g>
	</g>
	<g>
	</g>
</g>
</svg>
