<?xml version="1.0" encoding="utf-8"?>
<!-- Generator: Adobe Illustrator 24.0.2, SVG Export Plug-In . SVG Version: 6.00 Build 0)  -->
<svg version="1.2" baseProfile="tiny" id="Layer_1" xmlns="http://www.w3.org/2000/svg" xmlns:xlink="http://www.w3.org/1999/xlink"
	 x="0px" y="0px" viewBox="0 0 383.2 178.5" xml:space="preserve">
<title>idpack-in-the-cloud-logo</title>
<path d="M176.3,71.6h-52.5c-13.4,0-24.4-10.8-24.4-24.3c0-9.2,5.1-17.5,13.2-21.7C113.8,10.4,127-1,142.2,0
	c7.5,0.5,14.4,4.1,19.2,9.8c0.6,0,1.2-0.1,1.8-0.1c12.9,0,23.5,10,24.3,22.9c9.9,6.2,12.8,19.2,6.7,29
	C190.3,67.9,183.5,71.6,176.3,71.6L176.3,71.6z M140.2,6.1c-11.9,0-21.5,9.7-21.6,21.5v2l-1.9,0.8c-9.3,3.9-13.7,14.6-9.9,23.9
	c2.8,6.8,9.5,11.3,16.9,11.3h52.4c8.3,0,15-6.8,14.9-15.1c0-5.6-3.1-10.7-8.1-13.2l-1.6-0.8v-2.2c0-10.1-8.2-18.3-18.3-18.3
	c-0.9,0-1.8,0.1-2.6,0.2l-1.8,0.3l-1.1-1.5C153.5,9.4,147.1,6.1,140.2,6.1L140.2,6.1z"/>
<path fill="#676867" d="M142.3,82.6h15.3v9.1c2-3.1,4.8-5.7,8-7.6c3.4-1.9,7.3-2.9,11.2-2.9c7-0.1,13.7,3,18.3,8.4
	c5,5.6,7.5,13.5,7.5,23.5c0,10.3-2.5,18.3-7.6,24c-5,5.7-11.1,8.6-18.3,8.6c-3.2,0.1-6.4-0.6-9.3-2c-3.3-1.8-6.3-4.2-8.8-7v31.1
	h-16.3V82.6z M158.5,112.4c0,6.9,1.4,12.1,4.1,15.4c2.4,3.1,6.1,5,10.1,5c3.7,0,7.2-1.6,9.5-4.6c2.5-3,3.8-8,3.8-15
	c0-6.5-1.3-11.3-3.9-14.4c-2.3-3-5.9-4.7-9.6-4.7c-3.9-0.1-7.5,1.6-10,4.6C159.8,101.8,158.5,106.4,158.5,112.4z"/>
<path fill="#676867" d="M220.7,101.4l-14.8-2.7c1.7-6,4.5-10.4,8.6-13.3c4.1-2.8,10.1-4.3,18.1-4.3c7.3,0,12.7,0.9,16.3,2.6
	c3.1,1.3,5.8,3.7,7.5,6.6c1.5,2.7,2.2,7.5,2.2,14.6l-0.2,19.1c-0.1,4,0.2,8,0.8,12c0.6,2.9,1.6,5.7,2.9,8.3H246
	c-0.4-1.1-0.9-2.7-1.6-4.8c-0.3-1-0.5-1.6-0.6-1.9c-2.6,2.6-5.6,4.6-9,6.1c-3.2,1.3-6.7,2-10.2,2c-6.4,0-11.4-1.7-15-5.2
	c-3.6-3.4-5.6-8.1-5.5-13.1c-0.1-3.3,0.8-6.5,2.5-9.3c1.7-2.7,4.1-4.9,7-6.3c4.2-1.8,8.5-3.1,13-3.8c7.6-1.4,12.9-2.8,15.9-4v-1.6
	c0-3.1-0.8-5.4-2.3-6.7c-1.6-1.3-4.5-2-8.8-2c-2.4-0.1-4.8,0.5-6.8,1.7C223,96.5,221.7,98.5,220.7,101.4z M242.5,114.7
	c-2.1,0.7-5.4,1.5-10,2.5c-4.5,1-7.5,2-8.9,2.9c-2,1.2-3.2,3.4-3.2,5.8c0,2.2,0.9,4.4,2.6,5.9c1.7,1.7,4.1,2.6,6.6,2.5
	c3.1,0,6-1.1,8.4-2.9c1.9-1.3,3.2-3.2,3.9-5.4c0.5-2.6,0.8-5.3,0.6-8L242.5,114.7z"/>
<path fill="#676867" d="M321.4,100.8l-16.1,2.9c-0.3-2.8-1.6-5.4-3.7-7.3c-2.1-1.7-4.8-2.6-7.5-2.5c-3.7-0.2-7.3,1.4-9.8,4.2
	c-2.4,2.8-3.6,7.5-3.6,14.1c0,7.3,1.2,12.5,3.7,15.5c2.4,3,6.1,4.7,9.9,4.5c2.8,0.1,5.5-0.8,7.6-2.6c2-1.8,3.4-4.8,4.2-9.1l16.1,2.7
	c-1.7,7.4-4.9,12.9-9.6,16.7c-4.7,3.8-11.1,5.6-19,5.6c-9,0-16.2-2.9-21.6-8.5c-5.4-5.7-8.1-13.6-8.1-23.7c0-10.2,2.7-18.1,8.1-23.8
	c5.4-5.7,12.7-8.5,21.9-8.5c7.5,0,13.5,1.6,18,4.9S319.5,94.2,321.4,100.8z"/>
<path fill="#676867" d="M326.1,144.3V59.1h16.3v45.3l19.2-21.8h20.1l-21.1,22.6l22.6,39.2h-17.6l-15.5-27.8l-7.6,8v19.8L326.1,144.3
	z"/>
<path d="M69.9,144.3V44.1c0.1,0,0.2-0.1,0.3-0.1c7.8,0.1,15.7-0.1,23.5,0.3c7.8,0.2,15.4,2.6,21.9,6.9c7.9,5.2,12.4,12.8,14.9,21.7
	s2.9,17.8,2.5,26.9c-0.2,6.4-1.4,12.7-3.5,18.7c-3.9,10.3-10.6,18-20.8,22.6c-4.4,1.9-9.2,2.9-14,3c-8.1,0.3-16.2,0.3-24.4,0.4
	C70.2,144.4,70.1,144.4,69.9,144.3z M89.8,62.3v63.5c5.8,0.2,11-1,15.2-5.1c3.3-3.4,5.6-7.7,6.6-12.3c1.9-7.5,1.8-15,1.1-22.6
	c-0.4-4.5-1.6-8.9-3.5-13C105.6,65.5,98.8,61.8,89.8,62.3L89.8,62.3z"/>
<path fill="#339BD6" d="M193.8,156.2v21.9h-2.8v-21.9H193.8z"/>
<path fill="#339BD6" d="M198.7,178.1v-21.9h3.1l7,11.1c1.5,2.3,2.8,4.7,3.9,7.1h0.1c-0.3-2.9-0.3-5.6-0.3-9v-9.2h2.7v21.9h-2.9
	l-7-11.1c-1.5-2.4-2.9-4.8-4.1-7.3h-0.1c0.2,2.8,0.2,5.4,0.2,9v9.4L198.7,178.1z"/>
<path fill="#339BD6" d="M231.2,158.6h-6.7v-2.4h16.2v2.4H234v19.5h-2.9V158.6z"/>
<path fill="#339BD6" d="M246,156.2v9.2h10.6v-9.2h2.9v21.9h-2.9v-10.3H246v10.3h-2.8v-21.9H246z"/>
<path fill="#339BD6" d="M275.8,167.8h-8.5v7.9h9.5v2.4h-12.3v-21.9h11.8v2.4h-9v6.9h8.5L275.8,167.8z"/>
<path fill="#339BD6" d="M302.6,177.4c-1.8,0.7-3.8,1.1-5.8,1c-6.2,0-10.8-3.9-10.8-11.1c0-6.9,4.7-11.5,11.5-11.5
	c1.8-0.1,3.6,0.3,5.2,1l-0.7,2.3c-1.4-0.6-2.9-0.9-4.4-0.9c-5.1,0-8.5,3.3-8.5,9c0,5.4,3.1,8.8,8.4,8.8c1.6,0,3.2-0.3,4.6-0.9
	L302.6,177.4z"/>
<path fill="#339BD6" d="M306.2,156.2h2.8v19.6h9.4v2.4h-12.2V156.2z"/>
<path fill="#339BD6" d="M340.3,166.9c0,7.5-4.6,11.5-10.2,11.5c-5.8,0-9.9-4.5-9.9-11.1c0-7,4.3-11.5,10.2-11.5
	C336.3,155.8,340.3,160.4,340.3,166.9z M323.3,167.3c0,4.7,2.5,8.9,7,8.9c4.5,0,7-4.1,7-9.1c0-4.4-2.3-8.9-7-8.9
	C325.5,158.1,323.3,162.5,323.3,167.3L323.3,167.3z"/>
<path fill="#339BD6" d="M346.8,156.2v13c0,4.9,2.2,7,5.1,7c3.3,0,5.3-2.1,5.3-7v-13h2.9V169c0,6.7-3.5,9.5-8.3,9.5
	c-4.5,0-7.9-2.6-7.9-9.4v-12.9H346.8z"/>
<path fill="#339BD6" d="M365,156.5c2-0.3,4-0.4,6-0.5c4.1,0,7,0.9,8.9,2.7c2.1,2,3.3,4.9,3.1,7.9c0.1,3.2-1,6.2-3.2,8.5
	c-2,2-5.4,3.2-9.7,3.2c-1.7,0-3.4-0.1-5.1-0.3L365,156.5z M367.8,175.9c0.9,0.1,1.9,0.2,2.9,0.2c6,0,9.3-3.4,9.3-9.3
	c0-5.2-2.9-8.5-8.9-8.5c-1.1,0-2.2,0.1-3.3,0.3L367.8,175.9z"/>
<path fill="#349BD6" d="M2.7,44C1.2,44,0,45.2,0,46.7v95c0,1.5,1.2,2.7,2.7,2.7h39.9V44H2.7z"/>
<path fill="#349BD6" d="M60.6,44h-3.2v100.4h3.2c1.5,0,2.7-1.2,2.7-2.7v-95C63.3,45.2,62.1,44,60.6,44C60.6,44,60.6,44,60.6,44z"/>
<rect x="42.6" y="44" width="14.9" height="100.4"/>
</svg>
